<svg width="1920" height="610" viewBox="0 0 1920 610" fill="none" xmlns="http://www.w3.org/2000/svg">
<rect width="1920" height="610" fill="#F83718"/>
<ellipse cx="1372.47" cy="159.462" rx="2.46661" ry="2.4617" fill="white"/>
<ellipse cx="1387.27" cy="159.462" rx="2.46661" ry="2.4617" fill="white"/>
<ellipse cx="1416.86" cy="159.462" rx="2.46661" ry="2.4617" fill="white"/>
<ellipse cx="1431.66" cy="159.462" rx="2.46661" ry="2.4617" fill="white"/>
<ellipse cx="1446.46" cy="159.462" rx="2.46661" ry="2.4617" fill="white"/>
<ellipse cx="1461.27" cy="159.462" rx="2.46661" ry="2.4617" fill="white"/>
<ellipse cx="1476.06" cy="159.462" rx="2.46661" ry="2.4617" fill="white"/>
<ellipse cx="1372.46" cy="174.231" rx="2.46661" ry="2.4617" fill="white"/>
<ellipse cx="1387.27" cy="174.231" rx="2.46661" ry="2.4617" fill="white"/>
<ellipse cx="1402.06" cy="174.231" rx="2.46661" ry="2.4617" fill="white"/>
<ellipse cx="1431.66" cy="174.231" rx="2.46661" ry="2.4617" fill="white"/>
<ellipse cx="1446.46" cy="174.231" rx="2.46661" ry="2.4617" fill="white"/>
<ellipse cx="1461.27" cy="174.231" rx="2.46661" ry="2.4617" fill="white"/>
<ellipse cx="1476.06" cy="174.231" rx="2.46661" ry="2.4617" fill="white"/>
<ellipse cx="1372.46" cy="189.003" rx="2.46661" ry="2.4617" fill="white"/>
<ellipse cx="1387.27" cy="189.003" rx="2.46661" ry="2.4617" fill="white"/>
<ellipse cx="1402.06" cy="189.003" rx="2.46661" ry="2.4617" fill="white"/>
<ellipse cx="1416.86" cy="189.003" rx="2.46661" ry="2.4617" fill="white"/>
<ellipse cx="1446.46" cy="189.003" rx="2.46661" ry="2.4617" fill="white"/>
<ellipse cx="1461.27" cy="189.003" rx="2.46661" ry="2.4617" fill="white"/>
<ellipse cx="1476.06" cy="189.003" rx="2.46661" ry="2.4617" fill="white"/>
<ellipse cx="1372.46" cy="203.773" rx="2.46661" ry="2.4617" fill="white"/>
<ellipse cx="1387.27" cy="203.773" rx="2.46661" ry="2.4617" fill="white"/>
<ellipse cx="1402.06" cy="203.773" rx="2.46661" ry="2.4617" fill="white"/>
<ellipse cx="1416.86" cy="203.773" rx="2.46661" ry="2.4617" fill="white"/>
<ellipse cx="1431.66" cy="203.773" rx="2.46661" ry="2.4617" fill="white"/>
<ellipse cx="1461.27" cy="203.773" rx="2.46661" ry="2.4617" fill="white"/>
<ellipse cx="1476.06" cy="203.773" rx="2.46661" ry="2.4617" fill="white"/>
<ellipse cx="1372.46" cy="218.542" rx="2.46661" ry="2.4617" fill="white"/>
<ellipse cx="1387.27" cy="218.542" rx="2.46661" ry="2.4617" fill="white"/>
<ellipse cx="1402.06" cy="218.542" rx="2.46661" ry="2.4617" fill="white"/>
<ellipse cx="1416.86" cy="218.542" rx="2.46661" ry="2.4617" fill="white"/>
<ellipse cx="1431.66" cy="218.542" rx="2.46661" ry="2.4617" fill="white"/>
<ellipse cx="1446.46" cy="218.542" rx="2.46661" ry="2.4617" fill="white"/>
<ellipse cx="1461.27" cy="218.542" rx="2.46661" ry="2.4617" fill="white"/>
<ellipse cx="1476.06" cy="218.542" rx="2.46661" ry="2.4617" fill="white"/>
<ellipse cx="1372.46" cy="233.312" rx="2.46661" ry="2.4617" fill="white"/>
<ellipse cx="1387.27" cy="233.312" rx="2.46661" ry="2.4617" fill="white"/>
<ellipse cx="1402.06" cy="233.312" rx="2.46661" ry="2.4617" fill="white"/>
<ellipse cx="1416.86" cy="233.312" rx="2.46661" ry="2.4617" fill="white"/>
<ellipse cx="1431.66" cy="233.312" rx="2.46661" ry="2.4617" fill="white"/>
<ellipse cx="1446.46" cy="233.312" rx="2.46661" ry="2.4617" fill="white"/>
<ellipse cx="1476.06" cy="233.312" rx="2.46661" ry="2.4617" fill="white"/>
<ellipse cx="1372.46" cy="248.083" rx="2.46661" ry="2.4617" fill="white"/>
<ellipse cx="1387.27" cy="248.083" rx="2.46661" ry="2.4617" fill="white"/>
<ellipse cx="1402.06" cy="248.083" rx="2.46661" ry="2.4617" fill="white"/>
<ellipse cx="1416.86" cy="248.083" rx="2.46661" ry="2.4617" fill="white"/>
<ellipse cx="1431.66" cy="248.083" rx="2.46661" ry="2.4617" fill="white"/>
<ellipse cx="1446.46" cy="248.083" rx="2.46661" ry="2.4617" fill="white"/>
<ellipse cx="1461.27" cy="248.083" rx="2.46661" ry="2.4617" fill="white"/>
<ellipse cx="1372.46" cy="262.852" rx="2.46661" ry="2.4617" fill="white"/>
<ellipse cx="1387.27" cy="262.852" rx="2.46661" ry="2.4617" fill="white"/>
<ellipse cx="1402.06" cy="262.852" rx="2.46661" ry="2.4617" fill="white"/>
<ellipse cx="1416.86" cy="262.852" rx="2.46661" ry="2.4617" fill="white"/>
<ellipse cx="1431.66" cy="262.852" rx="2.46661" ry="2.4617" fill="white"/>
<ellipse cx="1446.46" cy="262.852" rx="2.46661" ry="2.4617" fill="white"/>
<ellipse cx="1461.27" cy="262.852" rx="2.46661" ry="2.4617" fill="white"/>
<ellipse cx="1476.06" cy="262.852" rx="2.46661" ry="2.4617" fill="white"/>
<ellipse cx="1372.46" cy="277.623" rx="2.46661" ry="2.4617" fill="white"/>
<ellipse cx="1387.27" cy="277.623" rx="2.46661" ry="2.4617" fill="white"/>
<ellipse cx="1402.06" cy="277.623" rx="2.46661" ry="2.4617" fill="white"/>
<ellipse cx="1416.86" cy="277.623" rx="2.46661" ry="2.4617" fill="white"/>
<ellipse cx="1431.66" cy="277.623" rx="2.46661" ry="2.4617" fill="white"/>
<ellipse cx="1446.46" cy="277.623" rx="2.46661" ry="2.4617" fill="white"/>
<ellipse cx="1461.27" cy="277.623" rx="2.46661" ry="2.4617" fill="white"/>
<ellipse cx="1476.06" cy="277.623" rx="2.46661" ry="2.4617" fill="white"/>
<ellipse cx="1372.46" cy="292.393" rx="2.46661" ry="2.4617" fill="white"/>
<ellipse cx="1387.27" cy="292.393" rx="2.46661" ry="2.4617" fill="white"/>
<ellipse cx="1402.06" cy="292.393" rx="2.46661" ry="2.4617" fill="white"/>
<ellipse cx="1416.86" cy="292.393" rx="2.46661" ry="2.4617" fill="white"/>
<ellipse cx="1431.66" cy="292.393" rx="2.46661" ry="2.4617" fill="white"/>
<ellipse cx="1446.46" cy="292.393" rx="2.46661" ry="2.4617" fill="white"/>
<ellipse cx="1461.27" cy="292.393" rx="2.46661" ry="2.4617" fill="white"/>
<ellipse cx="1476.06" cy="292.393" rx="2.46661" ry="2.4617" fill="white"/>
<ellipse cx="1372.46" cy="307.163" rx="2.46661" ry="2.4617" fill="white"/>
<ellipse cx="1387.27" cy="307.163" rx="2.46661" ry="2.4617" fill="white"/>
<ellipse cx="1402.06" cy="307.163" rx="2.46661" ry="2.4617" fill="white"/>
<ellipse cx="1416.86" cy="307.163" rx="2.46661" ry="2.4617" fill="white"/>
<ellipse cx="1431.66" cy="307.163" rx="2.46661" ry="2.4617" fill="white"/>
<ellipse cx="1446.46" cy="307.163" rx="2.46661" ry="2.4617" fill="white"/>
<ellipse cx="1461.27" cy="307.163" rx="2.46661" ry="2.4617" fill="white"/>
<ellipse cx="1476.06" cy="307.163" rx="2.46661" ry="2.4617" fill="white"/>
<ellipse cx="1372.46" cy="321.934" rx="2.46661" ry="2.4617" fill="white"/>
<ellipse cx="1387.27" cy="321.934" rx="2.46661" ry="2.4617" fill="white"/>
<ellipse cx="1402.06" cy="321.934" rx="2.46661" ry="2.4617" fill="white"/>
<ellipse cx="1416.86" cy="321.934" rx="2.46661" ry="2.4617" fill="white"/>
<ellipse cx="1431.66" cy="321.934" rx="2.46661" ry="2.4617" fill="white"/>
<ellipse cx="1446.46" cy="321.934" rx="2.46661" ry="2.4617" fill="white"/>
<ellipse cx="1461.27" cy="321.934" rx="2.46661" ry="2.4617" fill="white"/>
<ellipse cx="1476.06" cy="321.934" rx="2.46661" ry="2.4617" fill="white"/>
<ellipse cx="1490.27" cy="159.462" rx="2.46661" ry="2.4617" fill="white"/>
<ellipse cx="1505.07" cy="159.462" rx="2.46661" ry="2.4617" fill="white"/>
<ellipse cx="1519.87" cy="159.462" rx="2.46661" ry="2.4617" fill="white"/>
<ellipse cx="1534.67" cy="159.462" rx="2.46661" ry="2.4617" fill="white"/>
<ellipse cx="1490.27" cy="174.231" rx="2.46661" ry="2.4617" fill="white"/>
<ellipse cx="1505.07" cy="174.231" rx="2.46661" ry="2.4617" fill="white"/>
<ellipse cx="1519.87" cy="174.231" rx="2.46661" ry="2.4617" fill="white"/>
<ellipse cx="1534.67" cy="174.231" rx="2.46661" ry="2.4617" fill="white"/>
<ellipse cx="1490.27" cy="189.003" rx="2.46661" ry="2.4617" fill="white"/>
<ellipse cx="1505.07" cy="189.003" rx="2.46661" ry="2.4617" fill="white"/>
<ellipse cx="1519.87" cy="189.003" rx="2.46661" ry="2.4617" fill="white"/>
<ellipse cx="1534.67" cy="189.003" rx="2.46661" ry="2.4617" fill="white"/>
<ellipse cx="1490.27" cy="203.773" rx="2.46661" ry="2.4617" fill="white"/>
<ellipse cx="1505.07" cy="203.773" rx="2.46661" ry="2.4617" fill="white"/>
<ellipse cx="1519.87" cy="203.773" rx="2.46661" ry="2.4617" fill="white"/>
<ellipse cx="1534.67" cy="203.773" rx="2.46661" ry="2.4617" fill="white"/>
<ellipse cx="1490.27" cy="218.542" rx="2.46661" ry="2.4617" fill="white"/>
<ellipse cx="1505.07" cy="218.542" rx="2.46661" ry="2.4617" fill="white"/>
<ellipse cx="1519.87" cy="218.542" rx="2.46661" ry="2.4617" fill="white"/>
<ellipse cx="1534.67" cy="218.542" rx="2.46661" ry="2.4617" fill="white"/>
<ellipse cx="1490.27" cy="233.312" rx="2.46661" ry="2.4617" fill="white"/>
<ellipse cx="1505.07" cy="233.312" rx="2.46661" ry="2.4617" fill="white"/>
<ellipse cx="1519.87" cy="233.312" rx="2.46661" ry="2.4617" fill="white"/>
<ellipse cx="1534.67" cy="233.312" rx="2.46661" ry="2.4617" fill="white"/>
<ellipse cx="1490.27" cy="248.083" rx="2.46661" ry="2.4617" fill="white"/>
<ellipse cx="1505.07" cy="248.083" rx="2.46661" ry="2.4617" fill="white"/>
<ellipse cx="1519.87" cy="248.083" rx="2.46661" ry="2.4617" fill="white"/>
<ellipse cx="1534.67" cy="248.083" rx="2.46661" ry="2.4617" fill="white"/>
<ellipse cx="1505.07" cy="262.852" rx="2.46661" ry="2.4617" fill="white"/>
<ellipse cx="1519.87" cy="262.852" rx="2.46661" ry="2.4617" fill="white"/>
<ellipse cx="1534.67" cy="262.852" rx="2.46661" ry="2.4617" fill="white"/>
<ellipse cx="1505.07" cy="277.623" rx="2.46661" ry="2.4617" fill="white"/>
<ellipse cx="1519.87" cy="277.623" rx="2.46661" ry="2.4617" fill="white"/>
<ellipse cx="1534.67" cy="277.623" rx="2.46661" ry="2.4617" fill="white"/>
<ellipse cx="1505.07" cy="292.393" rx="2.46661" ry="2.4617" fill="white"/>
<ellipse cx="1519.87" cy="292.393" rx="2.46661" ry="2.4617" fill="white"/>
<ellipse cx="1534.67" cy="292.393" rx="2.46661" ry="2.4617" fill="white"/>
<ellipse cx="1505.07" cy="307.163" rx="2.46661" ry="2.4617" fill="white"/>
<ellipse cx="1519.87" cy="307.163" rx="2.46661" ry="2.4617" fill="white"/>
<ellipse cx="1534.67" cy="307.163" rx="2.46661" ry="2.4617" fill="white"/>
<ellipse cx="1505.07" cy="321.934" rx="2.46661" ry="2.4617" fill="white"/>
<ellipse cx="1519.87" cy="321.934" rx="2.46661" ry="2.4617" fill="white"/>
<ellipse cx="1534.67" cy="321.934" rx="2.46661" ry="2.4617" fill="white"/>
<ellipse cx="992.267" cy="364.462" rx="2.46661" ry="2.4617" fill="white"/>
<ellipse cx="1007.06" cy="364.462" rx="2.46661" ry="2.4617" fill="white"/>
<ellipse cx="1021.86" cy="364.462" rx="2.46661" ry="2.4617" fill="white"/>
<ellipse cx="1036.66" cy="364.462" rx="2.46661" ry="2.4617" fill="white"/>
<ellipse cx="1051.46" cy="364.462" rx="2.46661" ry="2.4617" fill="white"/>
<ellipse cx="1066.27" cy="364.462" rx="2.46661" ry="2.4617" fill="white"/>
<ellipse cx="1081.06" cy="364.462" rx="2.46661" ry="2.4617" fill="white"/>
<ellipse cx="992.269" cy="379.231" rx="2.46661" ry="2.4617" fill="white"/>
<ellipse cx="1007.06" cy="379.231" rx="2.46661" ry="2.4617" fill="white"/>
<ellipse cx="1021.86" cy="379.231" rx="2.46661" ry="2.4617" fill="white"/>
<ellipse cx="1036.66" cy="379.231" rx="2.46661" ry="2.4617" fill="white"/>
<ellipse cx="1051.46" cy="379.231" rx="2.46661" ry="2.4617" fill="white"/>
<ellipse cx="1066.27" cy="379.231" rx="2.46661" ry="2.4617" fill="white"/>
<ellipse cx="1081.06" cy="379.231" rx="2.46661" ry="2.4617" fill="white"/>
<ellipse cx="992.269" cy="394.003" rx="2.46661" ry="2.4617" fill="white"/>
<ellipse cx="1007.06" cy="394.003" rx="2.46661" ry="2.4617" fill="white"/>
<ellipse cx="1021.86" cy="394.003" rx="2.46661" ry="2.4617" fill="white"/>
<ellipse cx="1036.66" cy="394.003" rx="2.46661" ry="2.4617" fill="white"/>
<ellipse cx="1051.46" cy="394.003" rx="2.46661" ry="2.4617" fill="white"/>
<ellipse cx="1066.27" cy="394.003" rx="2.46661" ry="2.4617" fill="white"/>
<ellipse cx="1081.06" cy="394.003" rx="2.46661" ry="2.4617" fill="white"/>
<ellipse cx="1007.06" cy="408.773" rx="2.46661" ry="2.4617" fill="white"/>
<ellipse cx="1021.86" cy="408.773" rx="2.46661" ry="2.4617" fill="white"/>
<ellipse cx="1036.66" cy="408.773" rx="2.46661" ry="2.4617" fill="white"/>
<ellipse cx="1051.46" cy="408.773" rx="2.46661" ry="2.4617" fill="white"/>
<ellipse cx="1066.27" cy="408.773" rx="2.46661" ry="2.4617" fill="white"/>
<ellipse cx="1081.06" cy="408.773" rx="2.46661" ry="2.4617" fill="white"/>
<ellipse cx="1007.06" cy="423.542" rx="2.46661" ry="2.4617" fill="white"/>
<ellipse cx="1021.86" cy="423.542" rx="2.46661" ry="2.4617" fill="white"/>
<ellipse cx="1036.66" cy="423.542" rx="2.46661" ry="2.4617" fill="white"/>
<ellipse cx="1051.46" cy="423.542" rx="2.46661" ry="2.4617" fill="white"/>
<ellipse cx="1066.27" cy="423.542" rx="2.46661" ry="2.4617" fill="white"/>
<ellipse cx="1081.06" cy="423.542" rx="2.46661" ry="2.4617" fill="white"/>
<ellipse cx="992.269" cy="438.312" rx="2.46661" ry="2.4617" fill="white"/>
<ellipse cx="1007.06" cy="438.312" rx="2.46661" ry="2.4617" fill="white"/>
<ellipse cx="1021.86" cy="438.312" rx="2.46661" ry="2.4617" fill="white"/>
<ellipse cx="1036.66" cy="438.312" rx="2.46661" ry="2.4617" fill="white"/>
<ellipse cx="1051.46" cy="438.312" rx="2.46661" ry="2.4617" fill="white"/>
<ellipse cx="1066.27" cy="438.312" rx="2.46661" ry="2.4617" fill="white"/>
<ellipse cx="1081.06" cy="438.312" rx="2.46661" ry="2.4617" fill="white"/>
<ellipse cx="992.269" cy="453.083" rx="2.46661" ry="2.4617" fill="white"/>
<ellipse cx="1021.86" cy="453.083" rx="2.46661" ry="2.4617" fill="white"/>
<ellipse cx="1036.66" cy="453.083" rx="2.46661" ry="2.4617" fill="white"/>
<ellipse cx="1051.46" cy="453.083" rx="2.46661" ry="2.4617" fill="white"/>
<ellipse cx="1066.27" cy="453.083" rx="2.46661" ry="2.4617" fill="white"/>
<ellipse cx="1081.06" cy="453.083" rx="2.46661" ry="2.4617" fill="white"/>
<ellipse cx="992.269" cy="467.852" rx="2.46661" ry="2.4617" fill="white"/>
<ellipse cx="1007.06" cy="467.852" rx="2.46661" ry="2.4617" fill="white"/>
<ellipse cx="1036.66" cy="467.852" rx="2.46661" ry="2.4617" fill="white"/>
<ellipse cx="1051.46" cy="467.852" rx="2.46661" ry="2.4617" fill="white"/>
<ellipse cx="1066.27" cy="467.852" rx="2.46661" ry="2.4617" fill="white"/>
<ellipse cx="1081.06" cy="467.852" rx="2.46661" ry="2.4617" fill="white"/>
<ellipse cx="992.269" cy="482.623" rx="2.46661" ry="2.4617" fill="white"/>
<ellipse cx="1007.06" cy="482.623" rx="2.46661" ry="2.4617" fill="white"/>
<ellipse cx="1036.66" cy="482.623" rx="2.46661" ry="2.4617" fill="white"/>
<ellipse cx="1051.46" cy="482.623" rx="2.46661" ry="2.4617" fill="white"/>
<ellipse cx="1066.27" cy="482.623" rx="2.46661" ry="2.4617" fill="white"/>
<ellipse cx="1081.06" cy="482.623" rx="2.46661" ry="2.4617" fill="white"/>
<ellipse cx="992.269" cy="497.393" rx="2.46661" ry="2.4617" fill="white"/>
<ellipse cx="1007.06" cy="497.393" rx="2.46661" ry="2.4617" fill="white"/>
<ellipse cx="1021.86" cy="497.393" rx="2.46661" ry="2.4617" fill="white"/>
<ellipse cx="1036.66" cy="497.393" rx="2.46661" ry="2.4617" fill="white"/>
<ellipse cx="1051.46" cy="497.393" rx="2.46661" ry="2.4617" fill="white"/>
<ellipse cx="1066.27" cy="497.393" rx="2.46661" ry="2.4617" fill="white"/>
<ellipse cx="1081.06" cy="497.393" rx="2.46661" ry="2.4617" fill="white"/>
<ellipse cx="992.269" cy="512.163" rx="2.46661" ry="2.4617" fill="white"/>
<ellipse cx="1007.06" cy="512.163" rx="2.46661" ry="2.4617" fill="white"/>
<ellipse cx="1021.86" cy="512.163" rx="2.46661" ry="2.4617" fill="white"/>
<ellipse cx="1036.66" cy="512.163" rx="2.46661" ry="2.4617" fill="white"/>
<ellipse cx="1051.46" cy="512.163" rx="2.46661" ry="2.4617" fill="white"/>
<ellipse cx="1066.27" cy="512.163" rx="2.46661" ry="2.4617" fill="white"/>
<ellipse cx="1081.06" cy="512.163" rx="2.46661" ry="2.4617" fill="white"/>
<ellipse cx="977.467" cy="364.462" rx="2.46661" ry="2.4617" fill="white"/>
<ellipse cx="977.467" cy="379.231" rx="2.46661" ry="2.4617" fill="white"/>
<ellipse cx="977.467" cy="394.003" rx="2.46661" ry="2.4617" fill="white"/>
<ellipse cx="977.467" cy="408.773" rx="2.46661" ry="2.4617" fill="white"/>
<ellipse cx="977.467" cy="423.542" rx="2.46661" ry="2.4617" fill="white"/>
<ellipse cx="977.467" cy="438.312" rx="2.46661" ry="2.4617" fill="white"/>
<ellipse cx="977.467" cy="453.083" rx="2.46661" ry="2.4617" fill="white"/>
<ellipse cx="977.467" cy="467.852" rx="2.46661" ry="2.4617" fill="white"/>
<ellipse cx="977.467" cy="482.623" rx="2.46661" ry="2.4617" fill="white"/>
<ellipse cx="977.467" cy="497.393" rx="2.46661" ry="2.4617" fill="white"/>
<ellipse cx="977.467" cy="512.163" rx="2.46661" ry="2.4617" fill="white"/>
<ellipse cx="977.467" cy="526.934" rx="2.46661" ry="2.4617" fill="white"/>
<ellipse cx="964.513" cy="364.462" rx="2.46661" ry="2.4617" fill="white"/>
<ellipse cx="964.513" cy="379.231" rx="2.46661" ry="2.4617" fill="white"/>
<ellipse cx="964.513" cy="394.003" rx="2.46661" ry="2.4617" fill="white"/>
<ellipse cx="964.513" cy="408.773" rx="2.46661" ry="2.4617" fill="white"/>
<ellipse cx="964.513" cy="423.542" rx="2.46661" ry="2.4617" fill="white"/>
<ellipse cx="964.513" cy="438.312" rx="2.46661" ry="2.4617" fill="white"/>
<ellipse cx="964.513" cy="453.083" rx="2.46661" ry="2.4617" fill="white"/>
<ellipse cx="964.513" cy="467.852" rx="2.46661" ry="2.4617" fill="white"/>
<ellipse cx="964.513" cy="482.623" rx="2.46661" ry="2.4617" fill="white"/>
<ellipse cx="964.513" cy="497.393" rx="2.46661" ry="2.4617" fill="white"/>
<ellipse cx="964.513" cy="512.163" rx="2.46661" ry="2.4617" fill="white"/>
<ellipse cx="964.513" cy="526.934" rx="2.46661" ry="2.4617" fill="white"/>
<ellipse cx="992.269" cy="526.934" rx="2.46661" ry="2.4617" fill="white"/>
<ellipse cx="1007.06" cy="526.934" rx="2.46661" ry="2.4617" fill="white"/>
<ellipse cx="1021.86" cy="526.934" rx="2.46661" ry="2.4617" fill="white"/>
<ellipse cx="1036.66" cy="526.934" rx="2.46661" ry="2.4617" fill="white"/>
<ellipse cx="1051.46" cy="526.934" rx="2.46661" ry="2.4617" fill="white"/>
<ellipse cx="1066.27" cy="526.934" rx="2.46661" ry="2.4617" fill="white"/>
<ellipse cx="1081.06" cy="526.934" rx="2.46661" ry="2.4617" fill="white"/>
<ellipse cx="1095.27" cy="364.462" rx="2.46661" ry="2.4617" fill="white"/>
<ellipse cx="1110.07" cy="364.462" rx="2.46661" ry="2.4617" fill="white"/>
<ellipse cx="1124.87" cy="364.462" rx="2.46661" ry="2.4617" fill="white"/>
<ellipse cx="1139.67" cy="364.462" rx="2.46661" ry="2.4617" fill="white"/>
<ellipse cx="1095.27" cy="379.231" rx="2.46661" ry="2.4617" fill="white"/>
<ellipse cx="1110.07" cy="379.231" rx="2.46661" ry="2.4617" fill="white"/>
<ellipse cx="1124.87" cy="379.231" rx="2.46661" ry="2.4617" fill="white"/>
<ellipse cx="1139.67" cy="379.231" rx="2.46661" ry="2.4617" fill="white"/>
<ellipse cx="1095.27" cy="394.003" rx="2.46661" ry="2.4617" fill="white"/>
<ellipse cx="1110.07" cy="394.003" rx="2.46661" ry="2.4617" fill="white"/>
<ellipse cx="1124.87" cy="394.003" rx="2.46661" ry="2.4617" fill="white"/>
<ellipse cx="1139.67" cy="394.003" rx="2.46661" ry="2.4617" fill="white"/>
<ellipse cx="1095.27" cy="408.773" rx="2.46661" ry="2.4617" fill="white"/>
<ellipse cx="1110.07" cy="408.773" rx="2.46661" ry="2.4617" fill="white"/>
<ellipse cx="1124.87" cy="408.773" rx="2.46661" ry="2.4617" fill="white"/>
<ellipse cx="1139.67" cy="408.773" rx="2.46661" ry="2.4617" fill="white"/>
<ellipse cx="1095.27" cy="423.542" rx="2.46661" ry="2.4617" fill="white"/>
<ellipse cx="1110.07" cy="423.542" rx="2.46661" ry="2.4617" fill="white"/>
<ellipse cx="1124.87" cy="423.542" rx="2.46661" ry="2.4617" fill="white"/>
<ellipse cx="1139.67" cy="423.542" rx="2.46661" ry="2.4617" fill="white"/>
<ellipse cx="1095.27" cy="438.312" rx="2.46661" ry="2.4617" fill="white"/>
<ellipse cx="1110.07" cy="438.312" rx="2.46661" ry="2.4617" fill="white"/>
<ellipse cx="1124.87" cy="438.312" rx="2.46661" ry="2.4617" fill="white"/>
<ellipse cx="1139.67" cy="438.312" rx="2.46661" ry="2.4617" fill="white"/>
<ellipse cx="1095.27" cy="453.083" rx="2.46661" ry="2.4617" fill="white"/>
<ellipse cx="1110.07" cy="453.083" rx="2.46661" ry="2.4617" fill="white"/>
<ellipse cx="1124.87" cy="453.083" rx="2.46661" ry="2.4617" fill="white"/>
<ellipse cx="1139.67" cy="453.083" rx="2.46661" ry="2.4617" fill="white"/>
<ellipse cx="1095.27" cy="467.852" rx="2.46661" ry="2.4617" fill="white"/>
<ellipse cx="1110.07" cy="467.852" rx="2.46661" ry="2.4617" fill="white"/>
<ellipse cx="1124.87" cy="467.852" rx="2.46661" ry="2.4617" fill="white"/>
<ellipse cx="1139.67" cy="467.852" rx="2.46661" ry="2.4617" fill="white"/>
<ellipse cx="1095.27" cy="482.623" rx="2.46661" ry="2.4617" fill="white"/>
<ellipse cx="1110.07" cy="482.623" rx="2.46661" ry="2.4617" fill="white"/>
<ellipse cx="1124.87" cy="482.623" rx="2.46661" ry="2.4617" fill="white"/>
<ellipse cx="1139.67" cy="482.623" rx="2.46661" ry="2.4617" fill="white"/>
<ellipse cx="1095.27" cy="497.393" rx="2.46661" ry="2.4617" fill="white"/>
<ellipse cx="1110.07" cy="497.393" rx="2.46661" ry="2.4617" fill="white"/>
<ellipse cx="1124.87" cy="497.393" rx="2.46661" ry="2.4617" fill="white"/>
<ellipse cx="1139.67" cy="497.393" rx="2.46661" ry="2.4617" fill="white"/>
<ellipse cx="1095.27" cy="512.163" rx="2.46661" ry="2.4617" fill="white"/>
<ellipse cx="1110.07" cy="512.163" rx="2.46661" ry="2.4617" fill="white"/>
<ellipse cx="1124.87" cy="512.163" rx="2.46661" ry="2.4617" fill="white"/>
<ellipse cx="1095.27" cy="526.934" rx="2.46661" ry="2.4617" fill="white"/>
<ellipse cx="1110.07" cy="526.934" rx="2.46661" ry="2.4617" fill="white"/>
<ellipse cx="1124.87" cy="526.934" rx="2.46661" ry="2.4617" fill="white"/>
<path d="M1256.9 509.942C1408.12 509.942 1530.71 504.581 1530.71 497.968C1530.71 491.355 1408.12 485.994 1256.9 485.994C1105.67 485.994 983.086 491.355 983.086 497.968C983.086 504.581 1105.67 509.942 1256.9 509.942Z" fill="#E2E2E2"/>
<path fill-rule="evenodd" clip-rule="evenodd" d="M1256.89 485.993C1320.6 485.993 1379.2 486.945 1425.71 488.54C1539.54 423.591 1500.12 296.958 1459.25 225.334C1402.37 125.654 1267.96 89.8266 1212.37 169.359C1136.91 277.309 1064.11 239.641 1024.8 321.626C985.494 403.61 1045.19 482.204 1088.08 488.554C1134.59 486.958 1193.2 486.007 1256.89 486.007V485.993ZM1157.22 211.589C1119.78 240.035 1057.88 262.074 1037.31 231.837C1021.95 209.242 1040.87 166.852 1077.93 134.714C1114.99 102.577 1164.58 83.1592 1191.62 106.805C1223.71 134.868 1186.04 189.679 1157.22 211.589Z" fill="white"/>
<path fill-rule="evenodd" clip-rule="evenodd" d="M1167.31 109.881C1183.19 110.835 1192.84 123.849 1193.51 138.857C1193.78 145.242 1188.78 128.546 1171.18 126.226C1160.26 124.781 1158.62 127.994 1154.71 123.499C1150.8 119.003 1154.51 109.099 1167.31 109.881Z" fill="white"/>
<path fill-rule="evenodd" clip-rule="evenodd" d="M1342.99 159.764C1411.37 174.99 1454.89 237.776 1459.15 268.102C1461.56 285.243 1451.13 230.332 1364.86 205.201C1318.54 191.713 1290.36 204.573 1280.68 185.797C1271 167.021 1287.84 147.507 1342.99 159.764Z" fill="white"/>
<path fill-rule="evenodd" clip-rule="evenodd" d="M1436.28 456.753C1439.4 452.853 1443.79 449.635 1445.07 444.811C1446.59 439.122 1443.25 433.134 1444.08 427.294C1445.12 419.955 1452.2 415.199 1456.04 408.858C1459.8 402.659 1458.04 400.56 1458.38 393.31C1458.9 382.385 1467.87 368.597 1479.83 372.289C1491.98 376.062 1489.99 387.319 1487.85 395.795C1486.33 401.832 1487.31 402.699 1488.8 408.747C1490.59 416.05 1496.36 423.111 1493.93 430.237C1492.44 434.643 1488.11 437.616 1486.55 441.998C1484.77 446.959 1486.92 452.341 1487.75 457.548C1489.49 468.503 1486.99 477.62 1479.02 486.654C1477.43 488.166 1475.69 489.505 1473.82 490.648C1463.88 490.085 1452.83 489.57 1440.8 489.085C1440.07 488.458 1439.38 487.789 1438.73 487.082C1431.45 479.146 1429.27 465.498 1436.28 456.753Z" fill="white"/>
<path fill-rule="evenodd" clip-rule="evenodd" d="M1474.31 382.156C1474.36 382.033 1474.42 381.92 1474.51 381.823C1474.59 381.726 1474.7 381.647 1474.82 381.592C1474.93 381.537 1475.06 381.505 1475.19 381.501C1475.32 381.496 1475.45 381.517 1475.57 381.564C1475.69 381.61 1475.8 381.681 1475.9 381.771C1475.99 381.861 1476.06 381.97 1476.11 382.089C1476.16 382.209 1476.19 382.337 1476.19 382.467C1476.19 382.596 1476.16 382.724 1476.11 382.843C1475.15 385.382 1474.33 387.974 1473.68 390.608C1473.95 390.36 1474.24 390.12 1474.53 389.883C1475.9 388.799 1477.39 387.88 1478.97 387.144C1479.19 387.055 1479.45 387.056 1479.67 387.146C1479.9 387.236 1480.08 387.409 1480.19 387.63C1480.29 387.85 1480.31 388.102 1480.23 388.333C1480.15 388.564 1479.99 388.758 1479.78 388.875C1478.33 389.547 1476.98 390.386 1475.73 391.376C1474.63 392.252 1473.65 393.268 1472.81 394.397C1471.58 400.239 1470.78 406.524 1470.06 413.151C1471.11 411.505 1472.3 409.952 1473.62 408.51C1475.68 406.23 1478.15 404.35 1480.9 402.967C1481.13 402.862 1481.39 402.85 1481.62 402.933C1481.86 403.016 1482.05 403.188 1482.16 403.411C1482.27 403.634 1482.29 403.892 1482.22 404.129C1482.14 404.366 1481.97 404.564 1481.75 404.681C1479.22 405.961 1476.94 407.696 1475.04 409.801C1472.86 412.23 1471.02 414.945 1469.57 417.87L1469.38 419.668C1468.97 423.619 1468.55 427.669 1468.06 431.795C1468.06 431.834 1468.05 431.873 1468.04 431.911C1467.53 436.223 1466.92 440.651 1466.15 445.141C1468.1 442.103 1470.34 439.265 1472.85 436.668C1476.16 433.205 1480.05 430.357 1484.36 428.257C1484.47 428.202 1484.6 428.17 1484.72 428.163C1484.85 428.156 1484.97 428.174 1485.09 428.216C1485.21 428.257 1485.32 428.322 1485.42 428.406C1485.51 428.489 1485.59 428.591 1485.64 428.704C1485.69 428.817 1485.73 428.94 1485.73 429.066C1485.74 429.191 1485.72 429.317 1485.68 429.435C1485.64 429.554 1485.58 429.663 1485.49 429.757C1485.41 429.851 1485.31 429.927 1485.19 429.981C1481.09 431.988 1477.38 434.702 1474.22 437.999C1470.89 441.427 1467.86 445.611 1465.16 450.55C1463.96 456.682 1462.4 462.738 1460.48 468.684V468.708C1459.5 471.711 1458.39 474.729 1457.16 477.764C1464.02 471.859 1472.22 467.723 1481.04 465.717C1481.29 465.659 1481.55 465.703 1481.77 465.837C1481.98 465.971 1482.14 466.185 1482.19 466.433C1482.25 466.68 1482.21 466.94 1482.07 467.155C1481.94 467.371 1481.73 467.524 1481.48 467.582C1476.54 468.707 1471.78 470.522 1467.34 472.972C1462.93 475.439 1458.88 478.499 1455.31 482.068C1454.19 484.547 1452.97 487.031 1451.65 489.519L1449.52 489.428C1453.19 482.638 1456.24 475.53 1458.62 468.191C1458.98 463.456 1458.41 458.699 1456.96 454.177C1455.47 449.441 1453.04 444.7 1449.67 439.953C1449.59 439.851 1449.53 439.734 1449.5 439.609C1449.47 439.484 1449.46 439.354 1449.48 439.225C1449.5 439.097 1449.54 438.974 1449.61 438.864C1449.68 438.754 1449.77 438.658 1449.87 438.583C1449.98 438.508 1450.1 438.455 1450.22 438.428C1450.35 438.4 1450.48 438.399 1450.61 438.423C1450.74 438.448 1450.86 438.498 1450.96 438.57C1451.07 438.643 1451.16 438.736 1451.23 438.845C1454.72 443.754 1457.24 448.672 1458.79 453.6C1459.66 456.329 1460.23 459.142 1460.5 461.993C1463.37 451.619 1464.97 441.476 1466.14 431.809C1465.01 427.707 1463.75 424.237 1462.36 421.398C1460.96 418.559 1459.46 416.38 1457.86 414.86C1457.77 414.774 1457.69 414.67 1457.64 414.556C1457.59 414.441 1457.56 414.318 1457.56 414.193C1457.55 414.067 1457.58 413.942 1457.62 413.825C1457.67 413.708 1457.73 413.601 1457.82 413.51C1457.91 413.418 1458.01 413.345 1458.12 413.294C1458.24 413.243 1458.36 413.215 1458.49 413.211C1458.61 413.208 1458.74 413.229 1458.86 413.274C1458.97 413.318 1459.08 413.386 1459.17 413.472C1460.97 415.164 1462.61 417.527 1464.09 420.56C1465.09 422.657 1465.96 424.818 1466.68 427.028C1466.95 424.47 1467.22 421.95 1467.49 419.482L1467.69 417.549C1467.69 417.517 1467.69 417.479 1467.69 417.447C1469.05 404.295 1470.42 392.324 1474.31 382.156Z" fill="#0D0D0D"/>
<path fill-rule="evenodd" clip-rule="evenodd" d="M1468.39 461.874C1471.72 460.085 1475.73 459.139 1478.06 456.161C1480.81 452.657 1480.25 447.485 1482.56 443.669C1485.47 438.864 1491.81 437.646 1496.37 434.366C1500.83 431.154 1500.22 429.178 1502.61 424.228C1506.21 416.773 1516.56 409.823 1523.79 415.932C1531.13 422.131 1526.4 429.407 1522.4 434.676C1519.55 438.433 1519.97 439.33 1519.22 443.982C1518.3 449.598 1520.21 456.22 1516.42 460.47C1514.08 463.1 1510.18 463.893 1507.79 466.48C1505.09 469.412 1504.98 473.797 1504.01 477.667C1502.48 483.749 1499.62 488.417 1494.83 492.034C1486.21 491.376 1476.19 490.754 1464.95 490.18C1463.25 488.312 1461.94 486.127 1461.09 483.749C1458.38 476.055 1460.91 465.917 1468.39 461.874Z" fill="#0D0D0D"/>
<path fill-rule="evenodd" clip-rule="evenodd" d="M1517.02 421.179C1517.15 421.05 1517.34 420.979 1517.52 420.979C1517.71 420.98 1517.89 421.053 1518.02 421.182C1518.16 421.312 1518.24 421.489 1518.25 421.675C1518.25 421.862 1518.19 422.044 1518.06 422.184C1516.64 423.67 1515.31 425.236 1514.07 426.876C1514.34 426.787 1514.61 426.701 1514.88 426.623C1516.15 426.273 1517.46 426.073 1518.78 426.027C1518.97 426.029 1519.14 426.102 1519.28 426.232C1519.41 426.361 1519.49 426.538 1519.5 426.724C1519.51 426.91 1519.44 427.092 1519.32 427.232C1519.19 427.372 1519.02 427.459 1518.84 427.475C1517.63 427.513 1516.43 427.694 1515.27 428.014C1514.24 428.298 1513.26 428.713 1512.34 429.251C1509.75 432.962 1507.33 437.101 1504.86 441.505C1506.08 440.668 1507.37 439.938 1508.71 439.322C1510.82 438.345 1513.1 437.767 1515.42 437.616C1515.61 437.609 1515.8 437.676 1515.94 437.804C1516.08 437.932 1516.17 438.109 1516.18 438.299C1516.19 438.488 1516.12 438.674 1516 438.817C1515.87 438.96 1515.7 439.048 1515.51 439.063C1513.36 439.202 1511.25 439.74 1509.3 440.648C1507.06 441.693 1504.97 443.04 1503.09 444.65L1502.42 445.846C1500.97 448.477 1499.48 451.174 1497.9 453.91C1497.89 453.937 1497.87 453.964 1497.86 453.988C1496.21 456.847 1494.48 459.745 1492.62 462.647C1494.88 461.107 1497.28 459.792 1499.8 458.723C1503.13 457.29 1506.7 456.459 1510.32 456.271C1510.42 456.262 1510.52 456.274 1510.61 456.304C1510.7 456.334 1510.79 456.383 1510.86 456.448C1510.94 456.512 1511 456.59 1511.04 456.678C1511.08 456.766 1511.11 456.862 1511.11 456.959C1511.11 457.057 1511.1 457.154 1511.07 457.246C1511.03 457.337 1510.98 457.421 1510.91 457.492C1510.84 457.562 1510.76 457.619 1510.67 457.658C1510.58 457.697 1510.49 457.717 1510.39 457.718C1506.94 457.902 1503.55 458.695 1500.37 460.06C1496.77 461.618 1493.39 463.656 1490.33 466.118C1487.68 470.036 1484.8 473.792 1481.69 477.364H1481.68C1480.11 479.161 1478.44 480.936 1476.68 482.69C1483.21 480.601 1490.15 480.146 1496.89 481.364C1497.08 481.399 1497.25 481.507 1497.35 481.663C1497.46 481.82 1497.51 482.012 1497.47 482.2C1497.44 482.387 1497.34 482.554 1497.18 482.665C1497.03 482.776 1496.83 482.822 1496.65 482.792C1492.87 482.114 1489.01 481.972 1485.19 482.369C1481.39 482.784 1477.67 483.718 1474.13 485.145C1472.2 486.913 1470.17 488.638 1468.01 490.319L1465.78 490.203C1471.17 486.152 1476.12 481.545 1480.55 476.459C1482.2 473.269 1483.21 469.792 1483.55 466.218C1483.91 462.477 1483.62 458.455 1482.68 454.15C1482.66 454.055 1482.65 453.956 1482.67 453.859C1482.68 453.762 1482.72 453.669 1482.77 453.586C1482.82 453.502 1482.88 453.429 1482.96 453.372C1483.04 453.316 1483.14 453.275 1483.23 453.255C1483.33 453.234 1483.43 453.232 1483.52 453.251C1483.62 453.269 1483.71 453.307 1483.79 453.361C1483.87 453.416 1483.94 453.487 1484 453.569C1484.05 453.651 1484.09 453.743 1484.1 453.84C1485.07 458.294 1485.37 462.466 1484.99 466.355C1484.78 468.513 1484.35 470.642 1483.69 472.707C1488.77 466.331 1492.89 459.736 1496.58 453.339C1496.99 450.568 1497.14 447.766 1497.04 444.968C1496.91 442.591 1496.51 440.631 1495.84 439.087C1495.8 439 1495.78 438.907 1495.78 438.812C1495.78 438.717 1495.8 438.622 1495.83 438.534C1495.86 438.445 1495.92 438.365 1495.98 438.296C1496.05 438.228 1496.13 438.173 1496.21 438.135C1496.3 438.097 1496.4 438.076 1496.49 438.074C1496.59 438.072 1496.68 438.089 1496.77 438.124C1496.86 438.159 1496.94 438.21 1497.01 438.276C1497.08 438.342 1497.13 438.421 1497.17 438.508C1497.91 440.217 1498.35 442.347 1498.49 444.898C1498.57 446.654 1498.53 448.413 1498.38 450.164C1499.34 448.466 1500.27 446.787 1501.18 445.135L1501.89 443.849C1501.89 443.825 1501.91 443.804 1501.93 443.779C1506.78 435.04 1511.29 427.108 1517.02 421.179Z" fill="#4D4D4D"/>
<path fill-rule="evenodd" clip-rule="evenodd" d="M1095.68 448.784C1092.19 444.426 1087.28 440.826 1085.84 435.433C1084.14 429.07 1087.88 422.376 1086.95 415.857C1085.79 407.651 1077.88 402.331 1073.58 395.24C1069.37 388.295 1071.34 385.961 1070.96 377.855C1070.38 365.636 1060.35 350.22 1046.98 354.354C1033.4 358.559 1035.62 371.155 1038.01 380.633C1039.71 387.387 1038.6 388.357 1036.95 395.119C1034.95 403.287 1028.51 411.181 1031.2 419.147C1032.86 424.077 1037.7 427.402 1039.45 432.299C1041.44 437.845 1039.03 443.866 1038.1 449.687C1036.15 461.939 1038.95 472.131 1047.86 482.245C1051.28 485.497 1055.32 488.02 1059.74 489.659C1067.71 489.298 1076.19 488.958 1085.14 488.643C1088.05 487.14 1090.68 485.139 1092.91 482.73C1101.08 473.837 1103.51 458.572 1095.68 448.784Z" fill="white"/>
<path fill-rule="evenodd" clip-rule="evenodd" d="M1053.14 365.392C1053.02 365.158 1052.81 364.977 1052.57 364.884C1052.32 364.791 1052.05 364.791 1051.8 364.886C1051.55 364.98 1051.35 365.162 1051.23 365.396C1051.11 365.63 1051.07 365.901 1051.14 366.157C1052.21 368.991 1053.12 371.885 1053.85 374.824C1053.55 374.544 1053.23 374.275 1052.9 374.016C1051.38 372.803 1049.71 371.775 1047.94 370.952C1047.81 370.87 1047.67 370.817 1047.52 370.795C1047.37 370.774 1047.21 370.785 1047.06 370.828C1046.92 370.87 1046.78 370.944 1046.67 371.043C1046.55 371.142 1046.46 371.265 1046.39 371.403C1046.32 371.541 1046.29 371.691 1046.29 371.844C1046.28 371.996 1046.31 372.148 1046.37 372.288C1046.43 372.428 1046.52 372.554 1046.64 372.658C1046.75 372.761 1046.88 372.839 1047.03 372.887C1048.64 373.638 1050.17 374.577 1051.56 375.684C1052.79 376.666 1053.89 377.8 1054.83 379.061C1056.2 385.596 1057.1 392.625 1057.9 400.033C1056.73 398.192 1055.4 396.456 1053.92 394.845C1051.62 392.295 1048.86 390.194 1045.79 388.647C1045.66 388.562 1045.52 388.506 1045.37 388.482C1045.22 388.457 1045.06 388.465 1044.92 388.504C1044.77 388.544 1044.63 388.615 1044.51 388.711C1044.39 388.808 1044.3 388.929 1044.23 389.066C1044.16 389.203 1044.12 389.353 1044.12 389.506C1044.11 389.658 1044.14 389.811 1044.2 389.952C1044.25 390.094 1044.34 390.221 1044.45 390.327C1044.56 390.432 1044.69 390.513 1044.84 390.563C1047.68 391.995 1050.22 393.94 1052.35 396.298C1054.61 398.752 1056.65 401.759 1058.46 405.318L1058.67 407.329C1059.13 411.746 1059.6 416.276 1060.15 420.903C1060.15 420.948 1060.16 420.992 1060.17 421.035C1060.75 425.87 1061.42 430.807 1062.27 435.826C1060.1 432.434 1057.6 429.263 1054.8 426.358C1051.1 422.49 1046.74 419.306 1041.92 416.955C1041.8 416.874 1041.65 416.821 1041.5 416.799C1041.35 416.778 1041.2 416.788 1041.05 416.83C1040.9 416.872 1040.77 416.945 1040.65 417.042C1040.53 417.14 1040.44 417.262 1040.37 417.399C1040.31 417.536 1040.27 417.685 1040.27 417.837C1040.26 417.989 1040.29 418.14 1040.35 418.28C1040.41 418.42 1040.5 418.547 1040.61 418.651C1040.72 418.755 1040.85 418.835 1040.99 418.885C1045.58 421.128 1049.73 424.162 1053.26 427.848C1056.99 431.681 1060.37 436.359 1063.4 441.884C1064.73 448.74 1066.48 455.51 1068.63 462.158V462.185C1069.73 465.543 1070.96 468.918 1072.34 472.31C1064.67 465.706 1055.5 461.079 1045.63 458.835C1045.37 458.803 1045.1 458.869 1044.88 459.021C1044.66 459.174 1044.51 459.402 1044.45 459.661C1044.39 459.921 1044.43 460.193 1044.55 460.427C1044.68 460.66 1044.89 460.837 1045.15 460.924C1050.68 462.184 1056 464.217 1060.96 466.963C1065.89 469.718 1070.41 473.139 1074.41 477.129C1076.16 481.01 1078.13 484.909 1080.35 488.809L1082.78 488.717C1077.82 480.13 1073.77 471.046 1070.72 461.614C1070.32 456.321 1070.95 451.002 1072.57 445.948C1074.24 440.655 1076.96 435.355 1080.73 430.047C1080.84 429.935 1080.91 429.801 1080.96 429.656C1081.01 429.511 1081.02 429.357 1081.01 429.206C1080.99 429.054 1080.94 428.908 1080.87 428.776C1080.79 428.644 1080.68 428.531 1080.56 428.443C1080.43 428.354 1080.29 428.294 1080.14 428.264C1079.99 428.235 1079.84 428.238 1079.69 428.273C1079.54 428.307 1079.4 428.373 1079.28 428.466C1079.16 428.559 1079.06 428.676 1078.98 428.81C1075.09 434.301 1072.27 439.801 1070.54 445.309C1069.56 448.361 1068.92 451.508 1068.63 454.696C1065.41 443.094 1063.63 431.751 1062.32 420.93C1063.58 416.342 1064.99 412.46 1066.54 409.285C1068.09 406.111 1069.77 403.675 1071.57 401.979C1071.7 401.889 1071.8 401.773 1071.87 401.64C1071.95 401.507 1072 401.359 1072.01 401.207C1072.02 401.055 1072.01 400.901 1071.96 400.757C1071.91 400.612 1071.83 400.48 1071.72 400.369C1071.61 400.257 1071.49 400.17 1071.35 400.112C1071.2 400.054 1071.05 400.026 1070.9 400.031C1070.75 400.037 1070.59 400.074 1070.46 400.142C1070.32 400.21 1070.2 400.306 1070.1 400.424C1068.1 402.316 1066.27 404.957 1064.61 408.347C1063.48 410.689 1062.51 413.102 1061.7 415.57C1061.39 412.711 1061.1 409.892 1060.81 407.118L1060.59 404.962C1060.59 404.923 1060.59 404.883 1060.59 404.844C1059.04 390.137 1057.5 376.754 1053.14 365.392Z" fill="#0D0D0D"/>
<path fill-rule="evenodd" clip-rule="evenodd" d="M1060.31 455.012C1056.46 453.274 1051.91 452.531 1049.09 449.391C1045.76 445.685 1045.97 439.884 1043.1 435.808C1039.49 430.676 1032.31 429.808 1026.97 426.51C1021.74 423.272 1022.26 421.021 1019.22 415.687C1014.62 407.65 1002.54 400.703 994.948 408.085C987.244 415.586 993.08 423.318 997.959 428.887C1001.43 432.854 1001.01 433.888 1002.23 439.014C1003.7 445.209 1002.08 452.746 1006.64 457.19C1009.46 459.94 1013.87 460.521 1016.74 463.219C1019.99 466.28 1020.44 471.162 1021.82 475.404C1024.52 483.682 1029.35 487.223 1037.61 491.001C1045.65 491.001 1053.59 491.116 1062.62 490.074C1066.25 487.214 1068.89 483.285 1070.16 478.842C1072.59 470.044 1068.97 458.918 1060.31 455.012Z" fill="#0D0D0D"/>
<path fill-rule="evenodd" clip-rule="evenodd" d="M1002.74 413.521C1002.58 413.377 1002.36 413.302 1002.15 413.314C1001.93 413.325 1001.73 413.421 1001.59 413.581C1001.44 413.741 1001.37 413.951 1001.38 414.166C1001.39 414.381 1001.49 414.582 1001.65 414.726C1003.35 416.27 1004.96 417.914 1006.47 419.649C1006.17 419.567 1005.86 419.491 1005.55 419.427C1004.1 419.135 1002.63 419.015 1001.15 419.067C1000.94 419.074 1000.73 419.165 1000.58 419.321C1000.44 419.477 1000.36 419.686 1000.36 419.9C1000.37 420.115 1000.46 420.318 1000.62 420.465C1000.78 420.612 1000.98 420.691 1001.2 420.685C1002.55 420.633 1003.9 420.742 1005.22 421.009C1006.39 421.248 1007.52 421.636 1008.59 422.162C1011.76 426.1 1014.79 430.527 1017.89 435.246C1016.46 434.414 1014.96 433.705 1013.41 433.128C1010.98 432.201 1008.4 431.733 1005.79 431.745C1005.69 431.746 1005.58 431.769 1005.48 431.81C1005.38 431.852 1005.3 431.913 1005.22 431.989C1005.15 432.065 1005.09 432.155 1005.05 432.254C1005.01 432.353 1004.99 432.458 1004.99 432.564C1004.99 432.671 1005.01 432.776 1005.06 432.874C1005.1 432.971 1005.16 433.06 1005.23 433.134C1005.31 433.209 1005.4 433.267 1005.5 433.307C1005.6 433.346 1005.7 433.366 1005.81 433.365C1008.22 433.355 1010.6 433.791 1012.85 434.65C1015.43 435.641 1017.86 436.98 1020.08 438.629L1020.92 439.922C1022.74 442.744 1024.62 445.636 1026.59 448.567C1026.61 448.596 1026.63 448.623 1026.65 448.65C1028.7 451.713 1030.86 454.806 1033.16 457.898C1030.53 456.357 1027.74 455.078 1024.85 454.081C1021.02 452.746 1016.99 452.098 1012.93 452.167C1012.82 452.17 1012.72 452.193 1012.62 452.236C1012.52 452.28 1012.44 452.341 1012.36 452.418C1012.21 452.574 1012.13 452.782 1012.14 452.996C1012.15 453.211 1012.24 453.415 1012.39 453.563C1012.55 453.711 1012.76 453.791 1012.97 453.785C1016.83 453.721 1020.68 454.339 1024.33 455.611C1028.16 456.912 1032.05 458.906 1036 461.593C1039.26 465.746 1042.77 469.702 1046.5 473.439L1046.52 473.455C1048.41 475.337 1050.41 477.188 1052.5 479.006C1045.06 477.187 1037.29 477.219 1029.86 479.101C1029.65 479.152 1029.47 479.283 1029.36 479.466C1029.25 479.65 1029.21 479.87 1029.26 480.079C1029.31 480.288 1029.44 480.468 1029.63 480.58C1029.81 480.693 1030.03 480.727 1030.24 480.677C1034.4 479.626 1038.69 479.167 1042.98 479.313C1047.26 479.477 1051.49 480.229 1055.55 481.546C1058.48 483.89 1061.54 486.078 1064.7 488.101C1065.08 487.714 1065.44 487.306 1065.79 486.876C1059.25 482.704 1053.19 477.836 1047.71 472.358C1045.62 468.926 1044.21 465.123 1043.57 461.158C1042.87 457.014 1042.87 452.506 1043.58 447.633C1043.6 447.527 1043.59 447.42 1043.57 447.317C1043.54 447.214 1043.5 447.117 1043.43 447.032C1043.37 446.946 1043.29 446.874 1043.2 446.82C1043.11 446.765 1043.01 446.729 1042.9 446.713C1042.79 446.698 1042.69 446.703 1042.58 446.729C1042.48 446.755 1042.38 446.801 1042.3 446.864C1042.21 446.928 1042.14 447.008 1042.09 447.099C1042.03 447.19 1041.99 447.291 1041.98 447.396C1041.25 452.438 1041.25 457.114 1041.97 461.424C1042.37 463.815 1043.02 466.156 1043.91 468.409C1037.76 461.691 1032.64 454.658 1028.03 447.81C1027.35 444.752 1026.96 441.639 1026.86 438.509C1026.81 435.849 1027.11 433.631 1027.75 431.855C1027.82 431.653 1027.81 431.43 1027.72 431.236C1027.62 431.042 1027.46 430.892 1027.26 430.82C1027.05 430.748 1026.83 430.759 1026.64 430.851C1026.44 430.943 1026.29 431.109 1026.22 431.311C1025.52 433.278 1025.2 435.688 1025.25 438.541C1025.29 440.506 1025.47 442.465 1025.78 444.407C1024.58 442.589 1023.41 440.793 1022.26 439.02L1021.35 437.641C1021.34 437.614 1021.33 437.589 1021.31 437.566C1015.23 428.184 1009.58 419.688 1002.74 413.521Z" fill="#4D4D4D"/>
<path fill-rule="evenodd" clip-rule="evenodd" d="M1309.61 328.849C1308.8 340.073 1307.14 341.62 1296.42 342.488C1307.14 343.348 1308.8 344.897 1309.61 356.122C1310.42 344.897 1312.09 343.348 1322.81 342.488C1312.09 341.62 1310.43 340.063 1309.61 328.849ZM1353.18 358.45C1352.75 364.444 1351.86 365.269 1346.14 365.727C1351.86 366.188 1352.75 367.015 1353.18 373.003C1353.62 367.012 1354.51 366.185 1360.23 365.727C1354.51 365.263 1353.62 364.439 1353.18 358.45ZM1334.1 312.331C1333.66 318.4 1332.75 319.236 1326.97 319.705C1332.77 320.173 1333.66 321.009 1334.1 327.081C1334.55 321.009 1335.45 320.173 1341.24 319.705C1335.43 319.236 1334.53 318.4 1334.09 312.331H1334.1Z" fill="white"/>
<path d="M1215.87 139.116H1006.4C1000.93 139.116 996.502 143.54 996.502 148.996V277.28C996.502 282.737 1000.93 287.16 1006.4 287.16H1215.87C1221.34 287.16 1225.77 282.737 1225.77 277.28V148.996C1225.77 143.54 1221.34 139.116 1215.87 139.116Z" fill="#F9F9F9"/>
<path fill-rule="evenodd" clip-rule="evenodd" d="M1225.77 148.985V159.226H996.496V148.985C996.496 147.688 996.751 146.403 997.249 145.204C997.746 144.005 998.475 142.916 999.394 141.998C1000.31 141.081 1001.4 140.353 1002.6 139.857C1003.81 139.36 1005.09 139.105 1006.39 139.105H1215.85C1217.16 139.103 1218.44 139.357 1219.65 139.852C1220.85 140.348 1221.94 141.075 1222.86 141.993C1223.78 142.91 1224.51 144 1225.01 145.2C1225.51 146.4 1225.77 147.686 1225.77 148.985Z" fill="#DE2C10"/>
<path fill-rule="evenodd" clip-rule="evenodd" d="M1041.79 149.165C1041.79 150.279 1041.46 151.369 1040.84 152.296C1040.22 153.223 1039.34 153.946 1038.31 154.373C1037.28 154.8 1036.14 154.912 1035.05 154.695C1033.95 154.478 1032.95 153.941 1032.16 153.153C1031.37 152.365 1030.83 151.361 1030.61 150.268C1030.39 149.175 1030.51 148.041 1030.93 147.012C1031.36 145.982 1032.08 145.101 1033.01 144.482C1033.94 143.863 1035.03 143.532 1036.15 143.532C1036.89 143.532 1037.62 143.677 1038.31 143.96C1038.99 144.243 1039.61 144.658 1040.14 145.181C1040.66 145.704 1041.08 146.325 1041.36 147.009C1041.65 147.692 1041.79 148.425 1041.79 149.165Z" fill="white"/>
<path fill-rule="evenodd" clip-rule="evenodd" d="M1027.08 149.166C1027.08 150.28 1026.75 151.37 1026.13 152.297C1025.51 153.224 1024.63 153.947 1023.6 154.374C1022.56 154.801 1021.43 154.913 1020.33 154.696C1019.24 154.479 1018.23 153.942 1017.44 153.154C1016.65 152.366 1016.12 151.362 1015.9 150.269C1015.68 149.176 1015.79 148.042 1016.22 147.013C1016.65 145.983 1017.37 145.102 1018.3 144.483C1019.23 143.864 1020.32 143.533 1021.43 143.533C1022.17 143.533 1022.91 143.678 1023.59 143.961C1024.28 144.244 1024.9 144.659 1025.42 145.182C1025.95 145.705 1026.36 146.326 1026.65 147.01C1026.93 147.693 1027.08 148.426 1027.08 149.166Z" fill="white"/>
<path fill-rule="evenodd" clip-rule="evenodd" d="M1011.98 149.166C1011.98 150.281 1011.65 151.37 1011.03 152.298C1010.41 153.225 1009.53 153.947 1008.5 154.374C1007.47 154.801 1006.33 154.913 1005.24 154.696C1004.14 154.478 1003.14 153.941 1002.35 153.153C1001.56 152.365 1001.02 151.361 1000.8 150.267C1000.58 149.174 1000.7 148.04 1001.12 147.011C1001.55 145.981 1002.27 145.101 1003.2 144.482C1004.13 143.863 1005.22 143.533 1006.34 143.533C1007.84 143.533 1009.27 144.127 1010.33 145.183C1011.39 146.239 1011.98 147.672 1011.98 149.166Z" fill="white"/>
<path d="M1147.33 189.176H1080.51V196.576H1147.33V189.176Z" fill="#EBEBEB"/>
<path d="M1207.09 189.176H1156.06V196.576H1207.09V189.176Z" fill="#C1C1C1"/>
<path d="M1134.63 202.184H1020.07V209.581H1134.63V202.184Z" fill="#EBEBEB"/>
<path d="M1165.78 171.657H1051.23V179.055H1165.78V171.657Z" fill="#EBEBEB"/>
<path d="M1171.45 202.184H1143.61V209.581H1171.45V202.184Z" fill="#DDDDDD"/>
<path d="M1207.09 202.185H1180.19V209.582H1207.09V202.185Z" fill="#C1C1C1"/>
<path d="M1207.1 171.657H1174.35V179.055H1207.1V171.657Z" fill="#C1C1C1"/>
<path d="M1080.52 215.192H1020.07V222.59H1080.52V215.192Z" fill="#EBEBEB"/>
<path d="M1171.45 215.192H1089.49V222.59H1171.45V215.192Z" fill="#DDDDDD"/>
<path d="M1080.51 228.201H1043.41V235.599H1080.51V228.201Z" fill="#DDDDDD"/>
<path d="M1207.09 228.201H1089.25V235.599H1207.09V228.201Z" fill="#C1C1C1"/>
<path d="M1071.53 241.21H1020.07V248.608H1071.53V241.21Z" fill="#EBEBEB"/>
<path d="M1171.45 241.21H1080.51V248.608H1171.45V241.21Z" fill="#DDDDDD"/>
<path d="M1207.09 241.21H1180.19V248.608H1207.09V241.21Z" fill="#C1C1C1"/>
<path d="M1106.24 254.219H1020.07V261.617H1106.24V254.219Z" fill="#EBEBEB"/>
<path d="M1147.33 254.219H1115.22V261.617H1147.33V254.219Z" fill="#DDDDDD"/>
<path d="M1207.09 254.219H1156.06V261.617H1207.09V254.219Z" fill="#C1C1C1"/>
<path d="M1171.45 267.228H1057.77V274.625H1171.45V267.228Z" fill="#DDDDDD"/>
<path d="M1207.09 267.228H1180.19V274.625H1207.09V267.228Z" fill="#C1C1C1"/>
<path fill-rule="evenodd" clip-rule="evenodd" d="M1025.52 173.332L1016.66 176.601V179.363L1025.52 182.632V180.01L1019.79 177.984L1025.52 175.954V173.332Z" fill="#C1C1C1"/>
<path fill-rule="evenodd" clip-rule="evenodd" d="M1025.9 186.06H1028.94L1034.87 169.148H1031.84L1025.9 186.06Z" fill="#C1C1C1"/>
<path fill-rule="evenodd" clip-rule="evenodd" d="M1035.07 173.331V175.953L1040.81 177.983L1035.07 180.009V182.631L1043.93 179.362V176.6L1035.07 173.331Z" fill="#C1C1C1"/>
<path fill-rule="evenodd" clip-rule="evenodd" d="M1419.14 187.546V285.547C1419.14 287.548 1418.35 289.467 1416.93 290.883C1415.51 292.298 1413.59 293.093 1411.59 293.093H1251.56C1249.55 293.093 1247.63 292.298 1246.21 290.883C1244.8 289.467 1244 287.548 1244 285.547V187.546C1244 185.545 1244.8 183.625 1246.21 182.21C1247.63 180.795 1249.55 180 1251.56 180H1411.58C1412.57 179.999 1413.56 180.194 1414.47 180.573C1415.39 180.952 1416.23 181.507 1416.93 182.208C1417.63 182.909 1418.19 183.741 1418.57 184.657C1418.95 185.573 1419.14 186.555 1419.14 187.546Z" fill="#F9F9F9"/>
<path fill-rule="evenodd" clip-rule="evenodd" d="M1418.74 188.003V195.819H1243.6V188.003C1243.6 186.002 1244.4 184.082 1245.82 182.667C1247.23 181.252 1249.16 180.457 1251.16 180.457H1411.18C1412.17 180.456 1413.16 180.651 1414.08 181.03C1414.99 181.409 1415.83 181.965 1416.53 182.665C1417.23 183.366 1417.79 184.198 1418.17 185.114C1418.55 186.03 1418.74 187.012 1418.74 188.003Z" fill="#F83718"/>
<path fill-rule="evenodd" clip-rule="evenodd" d="M1278.2 188.134C1278.2 188.987 1277.94 189.821 1277.47 190.53C1277 191.239 1276.32 191.792 1275.53 192.118C1274.74 192.444 1273.87 192.53 1273.04 192.363C1272.2 192.197 1271.43 191.786 1270.83 191.183C1270.22 190.58 1269.81 189.812 1269.64 188.975C1269.48 188.139 1269.56 187.272 1269.89 186.484C1270.22 185.696 1270.77 185.023 1271.48 184.549C1272.19 184.075 1273.03 183.822 1273.88 183.822C1275.02 183.822 1276.12 184.277 1276.93 185.085C1277.74 185.894 1278.2 186.991 1278.2 188.134Z" fill="white"/>
<path fill-rule="evenodd" clip-rule="evenodd" d="M1266.96 188.134C1266.96 188.987 1266.71 189.821 1266.24 190.53C1265.76 191.239 1265.09 191.792 1264.3 192.118C1263.51 192.444 1262.64 192.53 1261.8 192.363C1260.96 192.197 1260.2 191.786 1259.59 191.183C1258.99 190.58 1258.58 189.812 1258.41 188.975C1258.24 188.139 1258.33 187.272 1258.65 186.484C1258.98 185.696 1259.54 185.023 1260.25 184.549C1260.96 184.075 1261.79 183.822 1262.64 183.822C1263.79 183.822 1264.89 184.277 1265.7 185.085C1266.51 185.894 1266.96 186.991 1266.96 188.134Z" fill="white"/>
<path fill-rule="evenodd" clip-rule="evenodd" d="M1255.43 188.135C1255.43 188.988 1255.18 189.822 1254.7 190.531C1254.23 191.24 1253.56 191.793 1252.77 192.119C1251.98 192.445 1251.11 192.531 1250.27 192.364C1249.43 192.198 1248.66 191.787 1248.06 191.184C1247.46 190.581 1247.04 189.813 1246.88 188.976C1246.71 188.14 1246.8 187.273 1247.12 186.485C1247.45 185.697 1248 185.024 1248.71 184.55C1249.42 184.076 1250.26 183.823 1251.11 183.823C1252.26 183.823 1253.36 184.278 1254.17 185.086C1254.98 185.895 1255.43 186.992 1255.43 188.135Z" fill="white"/>
<path d="M1483.9 253.164H1418.18C1412.96 253.164 1408.73 257.387 1408.73 262.597V328.22C1408.73 333.429 1412.96 337.652 1418.18 337.652H1483.9C1489.12 337.652 1493.35 333.429 1493.35 328.22V262.597C1493.35 257.387 1489.12 253.164 1483.9 253.164Z" fill="#F9F9F9"/>
<path fill-rule="evenodd" clip-rule="evenodd" d="M1440.35 292.188L1428.57 296.225L1440.35 300.26V306.86L1420.53 299.68V292.77L1440.35 285.591V292.188Z" fill="#C1C1C1"/>
<path fill-rule="evenodd" clip-rule="evenodd" d="M1453.76 277.134H1461.53L1448.7 313.689H1440.93L1453.76 277.134Z" fill="#C1C1C1"/>
<path fill-rule="evenodd" clip-rule="evenodd" d="M1481.55 292.769V299.679L1461.72 306.859V300.259L1473.5 296.224L1461.72 292.187V285.59L1481.55 292.769Z" fill="#C1C1C1"/>
<path fill-rule="evenodd" clip-rule="evenodd" d="M1035.62 340.204H1002.78C1002.16 340.205 1001.55 340.083 1000.97 339.846C1000.4 339.61 999.882 339.263 999.444 338.825C999.005 338.388 998.658 337.868 998.421 337.297C998.184 336.725 998.062 336.112 998.063 335.494V302.709C998.063 301.459 998.56 300.261 999.444 299.378C1000.33 298.494 1001.53 297.998 1002.78 297.998H1035.62C1036.87 297.998 1038.07 298.494 1038.96 299.378C1039.84 300.261 1040.34 301.459 1040.34 302.709V335.494C1040.34 336.112 1040.22 336.725 1039.98 337.297C1039.74 337.868 1039.4 338.388 1038.96 338.825C1038.52 339.263 1038 339.61 1037.43 339.846C1036.85 340.083 1036.24 340.205 1035.62 340.204Z" fill="#EBEBEB"/>
<path fill-rule="evenodd" clip-rule="evenodd" d="M1023.34 331.824C1023.35 332.635 1023.12 333.431 1022.68 334.111C1022.23 334.79 1021.6 335.324 1020.85 335.643C1020.1 335.962 1019.28 336.053 1018.48 335.904C1017.68 335.755 1016.95 335.373 1016.37 334.806C1015.79 334.238 1015.39 333.512 1015.22 332.718C1015.05 331.925 1015.13 331.099 1015.43 330.347C1015.73 329.595 1016.25 328.949 1016.92 328.493C1017.6 328.036 1018.39 327.788 1019.2 327.781C1020.29 327.771 1021.33 328.191 1022.11 328.949C1022.88 329.707 1023.32 330.741 1023.34 331.824Z" fill="white"/>
<path fill-rule="evenodd" clip-rule="evenodd" d="M1030.98 312.476C1027.58 309.925 1023.43 308.564 1019.18 308.601C1014.92 308.639 1010.8 310.073 1007.45 312.684C1006.37 313.516 1004.86 313.667 1003.96 312.832C1003.07 311.996 1003.35 310.269 1004.73 309.202C1008.85 305.993 1013.91 304.228 1019.14 304.18C1024.36 304.131 1029.46 305.801 1033.64 308.932C1035.03 309.978 1035.33 311.705 1034.45 312.552C1033.56 313.398 1032.07 313.29 1030.98 312.476Z" fill="white"/>
<path fill-rule="evenodd" clip-rule="evenodd" d="M1027.07 318.993C1024.76 317.443 1022.03 316.626 1019.25 316.651C1016.46 316.675 1013.75 317.539 1011.47 319.13C1010.37 319.89 1008.86 320.049 1007.96 319.222C1007.06 318.394 1007.41 316.578 1008.94 315.511C1011.95 313.411 1015.53 312.27 1019.21 312.238C1022.88 312.206 1026.48 313.284 1029.54 315.33C1031.09 316.37 1031.47 318.187 1030.58 319.022C1029.69 319.858 1028.18 319.734 1027.07 318.993Z" fill="white"/>
<path fill-rule="evenodd" clip-rule="evenodd" d="M1022.82 325.575C1021.69 325.011 1020.44 324.724 1019.17 324.735C1017.91 324.746 1016.66 325.056 1015.54 325.639C1014.38 326.213 1012.87 326.389 1011.95 325.583C1011.02 324.777 1011.55 322.734 1013.49 321.723C1015.23 320.818 1017.17 320.338 1019.14 320.321C1021.1 320.304 1023.05 320.751 1024.81 321.626C1026.76 322.599 1027.33 324.648 1026.43 325.456C1025.53 326.265 1023.99 326.13 1022.82 325.575Z" fill="white"/>
<path fill-rule="evenodd" clip-rule="evenodd" d="M1190.1 317.169C1190.1 317.169 1191.86 312.873 1193.79 312.698C1195.72 312.522 1201.87 311.558 1202.31 312.428C1202.75 313.299 1202.31 316.471 1200.99 317.597C1199.67 318.724 1191.51 320.578 1191.51 320.578L1190.1 317.169Z" fill="white"/>
<path fill-rule="evenodd" clip-rule="evenodd" d="M1143.34 289.246C1144.06 287.745 1144.88 285.077 1145.28 280.323C1145.22 280.792 1144.4 286.791 1142.09 290.19C1132.58 296.402 1114.39 317.185 1114.75 321.123C1114.75 321.123 1108.34 310.27 1108.23 310.205C1108.23 310.205 1096.41 295.2 1110.42 286.605C1117.54 282.234 1117.5 276.634 1117.21 271.756C1116.92 266.878 1119.15 245.914 1133.41 251.403C1133.41 251.403 1135.7 250.387 1136.72 250.538C1136.26 250.628 1135.82 250.833 1135.46 251.136C1137.11 251.039 1139.48 251.163 1141.45 252.282C1146.69 255.249 1151.36 281.862 1143.34 289.246Z" fill="#0D0D0D"/>
<path fill-rule="evenodd" clip-rule="evenodd" d="M1141.51 290.498C1141.56 290.517 1136.92 292.923 1133.44 291.967C1130.17 291.075 1128.03 286.846 1128.07 286.825C1129.46 286.555 1129.86 284.644 1129.83 276.468L1130.46 276.589L1141 278.678C1141 278.678 1140.76 281.987 1140.76 285.108C1140.75 287.733 1140.91 290.215 1141.51 290.498Z" fill="#FFD3CC"/>
<path fill-rule="evenodd" clip-rule="evenodd" d="M1141 278.678C1141 278.678 1140.76 281.988 1140.76 285.109C1134.85 284.947 1131.73 279.571 1130.46 276.59L1141 278.678Z" fill="#F2C4BD"/>
<path fill-rule="evenodd" clip-rule="evenodd" d="M1129.37 275.445C1129.37 275.445 1126.28 270.567 1125.53 266.395C1125.01 263.431 1126.53 252.381 1137.64 253.969C1139.88 254.277 1142.01 255.084 1143.9 256.329C1146.31 257.946 1149.79 261.469 1145.9 271.103L1144.89 274.356L1129.37 275.445Z" fill="#0D0D0D"/>
<path fill-rule="evenodd" clip-rule="evenodd" d="M1142.98 281.629C1142.98 281.629 1129.01 281.861 1129.01 273.178C1129 264.494 1127.19 258.679 1136.1 258.161C1145.02 257.644 1146.75 260.961 1147.46 263.856C1148.17 266.75 1146.61 281.349 1142.98 281.629Z" fill="#FFD3CC"/>
<path fill-rule="evenodd" clip-rule="evenodd" d="M1142.46 257.949C1142.46 257.949 1138.64 268.136 1132.77 269.643C1126.9 271.149 1124.36 269.581 1124.36 269.581C1124.36 269.581 1128.86 266.01 1129.79 259.782C1129.79 259.782 1139.58 253.101 1142.46 257.949Z" fill="#0D0D0D"/>
<path fill-rule="evenodd" clip-rule="evenodd" d="M1141.51 258.776C1141.51 258.776 1144.37 261.053 1145.06 263.263C1145.76 265.473 1146.07 270.025 1147.4 269.871C1147.4 269.871 1150.28 262.948 1147.05 259.029C1143.61 254.876 1141.51 258.776 1141.51 258.776Z" fill="#0D0D0D"/>
<path fill-rule="evenodd" clip-rule="evenodd" d="M1104.74 361.165C1105.49 363.254 1107.8 363.788 1110.9 363.429C1116.8 362.742 1125.57 358.783 1131.88 356.05C1141.52 351.878 1145.89 355.794 1148.95 353.142C1152.02 350.49 1145.45 344.591 1151.15 317.199C1153.08 307.912 1140.84 287.996 1140.84 287.996C1140.84 287.996 1139.79 293.764 1128.08 286.827C1127.67 286.584 1123.06 293.392 1118.64 301.787C1113.75 311.049 1109.06 322.239 1110.44 328.006C1113.05 338.983 1102.54 355.102 1104.74 361.165Z" fill="#FFE00C"/>
<path fill-rule="evenodd" clip-rule="evenodd" d="M1140.84 287.995L1148.05 317.543C1148.05 317.543 1148.95 319.138 1150.36 321.41C1153.66 326.744 1159.77 335.802 1163.69 336.723C1165.62 337.176 1169.73 335.57 1174.27 333.282C1182.86 328.946 1193.02 322.154 1193.02 322.154C1193.68 318.219 1190.25 315.012 1190.25 315.012C1190.25 315.012 1169.67 322.736 1167.63 322.879C1163.17 323.2 1158.64 301.732 1154.48 294.582C1151.47 289.394 1140.84 287.995 1140.84 287.995Z" fill="#FFE00C"/>
<path fill-rule="evenodd" clip-rule="evenodd" d="M1104.74 361.165C1105.49 363.253 1107.8 363.787 1110.9 363.428C1114.98 361.65 1132.63 354.826 1132.43 350.201C1132.14 343.353 1129.04 343.135 1131.23 334.684C1132.98 327.895 1116.68 315.28 1114.08 312.536C1109.19 321.799 1109.05 322.238 1110.43 328.005C1113.05 338.982 1102.54 355.101 1104.74 361.165Z" fill="#FEC047"/>
<path fill-rule="evenodd" clip-rule="evenodd" d="M1134.01 334.519C1134.01 334.519 1136.96 332.226 1139.75 332.767C1142.55 333.309 1143.91 335.233 1143.8 336.104C1143.69 336.974 1142.22 339.437 1140.08 339.656C1137.95 339.874 1131.87 338.343 1131.87 338.343L1134.01 334.519Z" fill="white"/>
<path fill-rule="evenodd" clip-rule="evenodd" d="M1128.08 286.826C1128.08 286.826 1116.7 287.53 1112.76 293.011C1107.21 300.735 1097.58 332.258 1100.21 339.476L1134.83 339.325C1134.83 339.325 1135.67 335.414 1134.5 333.52C1133.33 331.625 1114.36 328.564 1113.49 327.69C1112.61 326.817 1124.43 310.642 1124.43 308.017C1124.43 305.392 1128.08 286.826 1128.08 286.826Z" fill="#FFE00C"/>
<path fill-rule="evenodd" clip-rule="evenodd" d="M1136.98 347.431H1178.89L1186.45 321.122H1144.6L1136.98 347.431Z" fill="#F1F1F1"/>
<path d="M1178.75 346.406H1123.95V347.43H1178.75V346.406Z" fill="#C6C6C6"/>
<path fill-rule="evenodd" clip-rule="evenodd" d="M1165.58 333.862C1165.85 332.937 1165.31 332.186 1164.39 332.186C1163.9 332.212 1163.43 332.387 1163.05 332.687C1162.66 332.986 1162.37 333.396 1162.23 333.862C1161.96 334.784 1162.5 335.535 1163.42 335.535C1163.91 335.508 1164.38 335.333 1164.76 335.034C1165.15 334.735 1165.43 334.326 1165.58 333.862Z" fill="#C6C6C6"/>
<path fill-rule="evenodd" clip-rule="evenodd" d="M1135.65 263.629C1136.9 263.721 1136.83 264.707 1135.9 264.947C1126.06 267.41 1132.56 263.395 1135.65 263.629Z" fill="#0D0D0D"/>
<path fill-rule="evenodd" clip-rule="evenodd" d="M1361.38 470.928C1358.81 474.184 1355.63 476.899 1352 478.914C1345.85 482.296 1338.76 483.926 1343.16 485.454C1347.56 486.983 1353.99 488.176 1360.26 486.357C1364.66 485.083 1369.82 484.816 1371.18 482.741C1372.55 480.665 1367.94 474.96 1369.17 467.172C1370.16 460.93 1361.38 470.928 1361.38 470.928Z" fill="#F83718"/>
<path fill-rule="evenodd" clip-rule="evenodd" d="M1383.75 405.106C1383.75 405.106 1358.94 403.163 1352.01 404.368C1345.09 405.572 1329.88 405.556 1339.83 433.57C1347.62 455.524 1357.25 476.353 1357.25 476.353C1362.41 477.62 1366.14 481.18 1372.74 480.153C1372.74 480.153 1364.41 430.913 1357.68 423.828C1367.45 425.425 1377.12 427.605 1386.64 430.355C1412.04 437.608 1422.25 433.975 1422.25 433.975L1426.03 420.74L1383.75 405.106Z" fill="#0D0D0D"/>
<path d="M1283.84 387.719H1263.08V390.12H1283.84V387.719Z" fill="#0D0D0D"/>
<path fill-rule="evenodd" clip-rule="evenodd" d="M1255.8 327.711L1281.18 327.406L1289.42 371.477L1265.25 378.201L1255.8 327.711Z" fill="#0D0D0D"/>
<path fill-rule="evenodd" clip-rule="evenodd" d="M1257.75 329.309L1266.52 376.167L1287.56 370.313L1279.84 329.045L1257.75 329.309Z" fill="#EBEBEB"/>
<path fill-rule="evenodd" clip-rule="evenodd" d="M1263.08 390.122H1268.97V377.167L1265.25 378.202L1263.08 366.581V390.122Z" fill="#0D0D0D"/>
<path fill-rule="evenodd" clip-rule="evenodd" d="M1347.49 395.333H1251.85C1251.44 395.333 1251.11 394.398 1251.11 393.247V392.204C1251.11 391.054 1251.44 390.121 1251.85 390.121H1347.49C1347.9 390.121 1348.23 391.054 1348.23 392.204V393.247C1348.23 394.398 1347.9 395.333 1347.49 395.333Z" fill="#8D8D8D"/>
<path fill-rule="evenodd" clip-rule="evenodd" d="M1402.38 306.911C1407.96 306.76 1405.89 302.616 1412.31 304.27C1415.68 305.141 1413.19 306.526 1417.57 306.076C1421.95 305.626 1424.12 305.17 1424.67 308.03C1425.23 310.889 1425.48 311.803 1427.6 312.239C1429.72 312.676 1430.66 316.452 1427.6 319.009C1424.54 321.567 1426.03 322.618 1426.71 324.725C1427.39 326.833 1425.07 326.978 1423.82 328.935C1422.56 330.891 1424.97 331.261 1423.16 332.956C1421.36 334.651 1418.82 334.5 1418.82 334.5L1411.21 319.931L1402.38 306.911Z" fill="#0D0D0D"/>
<path fill-rule="evenodd" clip-rule="evenodd" d="M1352.74 480.984C1350.18 484.24 1346.99 486.954 1343.37 488.969C1337.22 492.354 1330.12 493.982 1334.52 495.512C1338.92 497.043 1345.35 498.232 1351.63 496.413C1356.03 495.138 1361.19 494.871 1362.55 492.796C1363.91 490.721 1360.94 485.519 1362.18 477.72C1363.17 471.479 1352.74 480.984 1352.74 480.984Z" fill="#F83718"/>
<path fill-rule="evenodd" clip-rule="evenodd" d="M1389.02 405.278C1389.02 405.278 1356.78 404.076 1349.86 405.278C1342.93 406.48 1327.72 406.47 1337.67 434.481C1345.46 456.437 1348.03 484.234 1348.03 484.234L1363.52 488.034C1363.52 488.034 1362.91 438.049 1355.52 424.742C1365.29 426.337 1374.96 428.516 1384.48 431.266C1409.88 438.518 1423.81 434.888 1423.81 434.888L1427.59 421.653L1389.02 405.278Z" fill="#0D0D0D"/>
<path fill-rule="evenodd" clip-rule="evenodd" d="M1415.94 322.184L1423.82 345.42L1413.87 351.961L1408.23 331.886L1415.94 322.184Z" fill="#FFD3CC"/>
<path fill-rule="evenodd" clip-rule="evenodd" d="M1412.98 348.791L1408.23 331.886L1415.94 322.184L1418.82 330.684C1417.83 338.359 1415.42 344.708 1412.98 348.791Z" fill="#F2C4BD"/>
<path fill-rule="evenodd" clip-rule="evenodd" d="M1395.85 326.116C1395.59 333.185 1399.07 339.302 1404.59 339.844C1410.12 340.386 1415.16 335.125 1415.86 328.086C1416.55 321.047 1412.64 314.907 1407.11 314.36C1401.59 313.813 1396.26 314.964 1395.85 326.116Z" fill="#FFD3CC"/>
<path fill-rule="evenodd" clip-rule="evenodd" d="M1427.6 344.744C1451.78 361.043 1436.74 387.387 1431.43 406.637C1426.91 423.036 1427.06 432.946 1426.38 432.946C1425.7 432.946 1409.08 430.461 1399.58 421.896C1393.84 416.705 1388.52 411.062 1383.68 405.023C1383.68 405.023 1395.82 402.867 1399.81 387.158C1401.83 379.189 1400.91 374.861 1405.51 362.227C1410.11 349.592 1427.6 344.744 1427.6 344.744Z" fill="#FFE00C"/>
<path fill-rule="evenodd" clip-rule="evenodd" d="M1427.6 344.743L1425.01 338.418C1425.01 338.418 1416.8 343.83 1413.52 346.387C1410.24 348.945 1408.23 349.546 1408.23 349.546C1408.23 349.546 1407.04 358.612 1407.81 357.79C1417.5 347.422 1427.6 344.743 1427.6 344.743Z" fill="#D1D1D1"/>
<path fill-rule="evenodd" clip-rule="evenodd" d="M1438.31 499.768H1436.2L1421.07 436.711H1425.71L1438.31 499.768Z" fill="#8D8D8D"/>
<path fill-rule="evenodd" clip-rule="evenodd" d="M1375.08 499.769H1377.19L1394.56 434.482H1389.92L1375.08 499.769Z" fill="#8D8D8D"/>
<path fill-rule="evenodd" clip-rule="evenodd" d="M1414.8 439.071C1423.26 439.071 1428.61 437.557 1432.03 434.22C1436.27 430.097 1437.15 423.71 1437.16 415.396C1437.19 397.905 1438.16 394.291 1443.1 383.611C1443.36 383.043 1443.38 382.395 1443.16 381.81C1442.94 381.225 1442.5 380.75 1441.94 380.488C1441.37 380.227 1440.72 380.201 1440.13 380.415C1439.54 380.63 1439.07 381.068 1438.8 381.633C1433.59 392.922 1432.47 397.07 1432.44 415.388C1432.43 423.818 1431.36 428.297 1428.74 430.838C1426.06 433.444 1421.21 434.52 1413.03 434.317C1405.12 434.118 1399.68 433.016 1395.31 432.129C1389.56 430.962 1385.41 430.119 1380.47 432.469C1379.92 432.749 1379.5 433.232 1379.3 433.816C1379.1 434.399 1379.14 435.036 1379.41 435.592C1379.68 436.148 1380.15 436.578 1380.73 436.791C1381.3 437.003 1381.94 436.983 1382.51 436.732C1386.02 435.064 1388.99 435.654 1394.35 436.759C1398.91 437.684 1404.58 438.832 1412.9 439.036C1413.55 439.066 1414.19 439.071 1414.8 439.071Z" fill="#8D8D8D"/>
<path fill-rule="evenodd" clip-rule="evenodd" d="M1426.7 368.479C1426.7 368.479 1420.68 386.826 1413.21 394.421C1405.74 402.015 1390.74 404.567 1386.05 404.268C1389.79 402.764 1396.92 398.485 1399.79 387.149C1401.81 379.18 1400.9 374.852 1405.49 362.218C1408.9 352.84 1419.42 347.757 1424.62 345.76C1418.14 350.409 1410.04 358.062 1407.54 363.889C1404.79 370.357 1426.7 368.479 1426.7 368.479Z" fill="#FEC047"/>
<path fill-rule="evenodd" clip-rule="evenodd" d="M1343.54 384.579C1343.54 384.579 1333.15 379.844 1332.02 380.294C1330.89 380.744 1319.37 387.694 1319.37 388.845C1319.37 389.996 1329.54 384.555 1329.54 384.555C1329.54 384.555 1328.4 387.56 1329.08 389.004C1329.76 390.449 1337.58 390.446 1344.63 389.993C1351.68 389.54 1343.54 384.579 1343.54 384.579Z" fill="white"/>
<path fill-rule="evenodd" clip-rule="evenodd" d="M1426.37 354.301C1435.95 373.907 1403.09 393.78 1383.59 395.55C1364.1 397.321 1340.94 390.944 1340.94 390.944L1343.55 384.579C1343.55 384.579 1382.61 379.491 1383.61 378.777C1384.6 378.062 1422.86 347.121 1426.37 354.301Z" fill="#FFE00C"/>
<path fill-rule="evenodd" clip-rule="evenodd" d="M1395.83 307.919C1393.19 306.817 1390.2 305.634 1391.13 310.126C1391.53 312.08 1391.13 311.528 1390.43 313.333C1389.73 315.139 1392.2 316.567 1393 317.556C1393.8 318.546 1391.83 319.65 1393.44 320.852C1395.05 322.054 1397.16 320.408 1398.66 320.852C1403.13 322.184 1402.58 318.675 1405.08 317.945C1407.59 317.214 1408.83 317.327 1409.31 318.931C1409.79 320.534 1407.55 325.814 1409.45 325.315C1411.36 324.817 1411.79 329.072 1412.31 331.482C1412.82 333.891 1414.13 329.819 1414.04 327.067C1413.91 322.847 1414.96 321.073 1416.52 319.893C1418.08 318.713 1418.74 307.97 1411.21 307.569C1403.68 307.167 1403.63 306.44 1400.41 305.76C1397.19 305.081 1397.04 308.42 1395.83 307.919Z" fill="#0D0D0D"/>
<path fill-rule="evenodd" clip-rule="evenodd" d="M1259.99 395.334H1265.52V495.318H1259.99V395.334ZM1333.82 395.334H1339.35V495.318H1333.82V395.334Z" fill="#8D8D8D"/>
<path fill-rule="evenodd" clip-rule="evenodd" d="M1415.15 316.301C1416.56 316.301 1417.94 316.718 1419.11 317.5C1420.28 318.281 1421.19 319.392 1421.73 320.692C1422.27 321.992 1422.41 323.422 1422.14 324.801C1421.86 326.181 1421.18 327.448 1420.19 328.443C1419.19 329.437 1417.92 330.115 1416.54 330.389C1415.16 330.663 1413.72 330.522 1412.42 329.983C1411.12 329.444 1410.01 328.532 1409.23 327.362C1408.44 326.192 1408.03 324.817 1408.03 323.41C1408.03 322.476 1408.21 321.552 1408.57 320.689C1408.93 319.826 1409.45 319.042 1410.11 318.382C1410.78 317.722 1411.56 317.198 1412.42 316.841C1413.29 316.484 1414.22 316.3 1415.15 316.301Z" fill="#D1D1D1"/>
<path fill-rule="evenodd" clip-rule="evenodd" d="M1413.85 303.407H1416.82C1417.02 303.407 1417.22 303.488 1417.36 303.631C1417.51 303.774 1417.59 303.969 1417.59 304.173V321.421C1417.59 321.625 1417.51 321.82 1417.37 321.964C1417.22 322.108 1417.02 322.189 1416.82 322.189H1413.85C1413.65 322.188 1413.45 322.107 1413.31 321.963C1413.16 321.819 1413.08 321.624 1413.08 321.421V304.173C1413.08 303.969 1413.16 303.775 1413.31 303.631C1413.45 303.488 1413.65 303.407 1413.85 303.407Z" fill="#F83718"/>
<path d="M1418.31 324.144C1418.73 322.384 1417.63 320.62 1415.87 320.205C1414.11 319.789 1412.34 320.879 1411.93 322.639C1411.51 324.399 1412.6 326.163 1414.36 326.578C1416.13 326.994 1417.89 325.904 1418.31 324.144Z" fill="white"/>
<path fill-rule="evenodd" clip-rule="evenodd" d="M1044.06 335.92C1043.25 347.145 1041.58 348.694 1030.87 349.559C1041.58 350.422 1043.24 351.985 1044.06 363.193C1044.87 351.971 1046.54 350.422 1057.26 349.559C1046.54 348.694 1044.88 347.134 1044.06 335.92ZM1087.63 365.522C1087.19 371.515 1086.31 372.34 1080.59 372.798C1086.31 373.259 1087.19 374.086 1087.63 380.075C1088.07 374.081 1088.95 373.254 1094.68 372.798C1088.95 372.335 1088.07 371.51 1087.63 365.522ZM1068.57 319.402C1068.12 325.471 1067.22 326.31 1061.43 326.779C1067.23 327.245 1068.12 328.083 1068.57 334.149C1069.01 328.083 1069.92 327.245 1075.7 326.779C1069.89 326.315 1068.99 325.471 1068.57 319.402Z" fill="white"/>
<path d="M1289.91 250.865C1289.91 252.636 1289.7 254.302 1289.28 255.865C1288.9 257.427 1288.2 258.799 1287.2 259.979C1286.23 261.125 1284.89 262.045 1283.19 262.74C1281.52 263.399 1279.4 263.729 1276.83 263.729C1274.47 263.729 1272.44 263.451 1270.74 262.896C1269.04 262.306 1267.63 261.629 1266.52 260.865L1269.23 254.563C1270.24 255.153 1271.31 255.674 1272.46 256.125C1273.6 256.577 1274.85 256.802 1276.21 256.802C1278.19 256.802 1279.61 256.316 1280.48 255.344C1281.35 254.372 1281.78 252.74 1281.78 250.448V226.907H1289.91V250.865ZM1320.93 263C1320.55 261.75 1320.12 260.465 1319.63 259.146C1319.18 257.827 1318.73 256.507 1318.28 255.188H1304.21C1303.76 256.507 1303.29 257.827 1302.81 259.146C1302.36 260.465 1301.94 261.75 1301.56 263H1293.12C1294.48 259.111 1295.76 255.518 1296.98 252.219C1298.19 248.921 1299.37 245.813 1300.52 242.896C1301.7 239.98 1302.84 237.219 1303.95 234.615C1305.1 231.977 1306.28 229.407 1307.5 226.907H1315.26C1316.44 229.407 1317.6 231.977 1318.75 234.615C1319.89 237.219 1321.04 239.98 1322.18 242.896C1323.36 245.813 1324.56 248.921 1325.78 252.219C1326.99 255.518 1328.28 259.111 1329.63 263H1320.93ZM1311.19 235.084C1311.02 235.605 1310.76 236.317 1310.41 237.219C1310.07 238.122 1309.67 239.164 1309.21 240.344C1308.76 241.525 1308.26 242.827 1307.7 244.251C1307.18 245.674 1306.65 247.167 1306.09 248.73H1316.35C1315.79 247.167 1315.26 245.674 1314.74 244.251C1314.21 242.827 1313.71 241.525 1313.22 240.344C1312.77 239.164 1312.37 238.122 1312.03 237.219C1311.68 236.317 1311.4 235.605 1311.19 235.084ZM1341.62 263C1340.2 259.979 1338.79 256.837 1337.41 253.573C1336.02 250.309 1334.7 247.08 1333.45 243.886C1332.2 240.692 1331.03 237.636 1329.96 234.72C1328.92 231.803 1328.01 229.199 1327.25 226.907H1336.21C1336.9 228.991 1337.65 231.247 1338.45 233.678C1339.28 236.074 1340.11 238.469 1340.95 240.865C1341.81 243.261 1342.65 245.553 1343.45 247.74C1344.25 249.927 1344.99 251.82 1345.69 253.417C1346.35 251.82 1347.07 249.927 1347.87 247.74C1348.71 245.553 1349.54 243.261 1350.37 240.865C1351.24 238.469 1352.07 236.074 1352.87 233.678C1353.71 231.247 1354.47 228.991 1355.16 226.907H1363.81C1363.01 229.199 1362.09 231.803 1361.05 234.72C1360.01 237.636 1358.86 240.692 1357.61 243.886C1356.36 247.08 1355.04 250.309 1353.65 253.573C1352.27 256.837 1350.86 259.979 1349.44 263H1341.62ZM1389.24 263C1388.86 261.75 1388.42 260.465 1387.94 259.146C1387.49 257.827 1387.03 256.507 1386.58 255.188H1372.52C1372.07 256.507 1371.6 257.827 1371.12 259.146C1370.66 260.465 1370.25 261.75 1369.87 263H1361.43C1362.78 259.111 1364.07 255.518 1365.28 252.219C1366.5 248.921 1367.68 245.813 1368.82 242.896C1370 239.98 1371.15 237.219 1372.26 234.615C1373.41 231.977 1374.59 229.407 1375.8 226.907H1383.56C1384.74 229.407 1385.91 231.977 1387.05 234.615C1388.2 237.219 1389.34 239.98 1390.49 242.896C1391.67 245.813 1392.87 248.921 1394.08 252.219C1395.3 255.518 1396.58 259.111 1397.94 263H1389.24ZM1379.5 235.084C1379.33 235.605 1379.07 236.317 1378.72 237.219C1378.37 238.122 1377.97 239.164 1377.52 240.344C1377.07 241.525 1376.57 242.827 1376.01 244.251C1375.49 245.674 1374.95 247.167 1374.4 248.73H1384.66C1384.1 247.167 1383.56 245.674 1383.04 244.251C1382.52 242.827 1382.02 241.525 1381.53 240.344C1381.08 239.164 1380.68 238.122 1380.33 237.219C1379.99 236.317 1379.71 235.605 1379.5 235.084Z" fill="#C1C1C1"/>
<path fill-rule="evenodd" clip-rule="evenodd" d="M1253.14 385.736V483.734C1253.14 485.736 1252.35 487.655 1250.93 489.07C1249.51 490.485 1247.59 491.28 1245.58 491.28H1085.56C1083.55 491.28 1081.63 490.485 1080.21 489.07C1078.8 487.655 1078 485.736 1078 483.734V385.736C1078 383.735 1078.8 381.816 1080.21 380.401C1081.63 378.985 1083.55 378.19 1085.56 378.19H1245.58C1247.59 378.19 1249.51 378.985 1250.93 380.401C1252.35 381.816 1253.14 383.735 1253.14 385.736Z" fill="#F9F9F9"/>
<path fill-rule="evenodd" clip-rule="evenodd" d="M1253.14 385.736V393.552H1078V385.736C1078 383.735 1078.8 381.816 1080.21 380.401C1081.63 378.985 1083.55 378.19 1085.56 378.19H1245.58C1247.59 378.19 1249.51 378.985 1250.93 380.401C1252.35 381.816 1253.14 383.735 1253.14 385.736Z" fill="#C1C1C1"/>
<path fill-rule="evenodd" clip-rule="evenodd" d="M1112.6 385.874C1112.6 386.727 1112.34 387.561 1111.87 388.27C1111.39 388.979 1110.72 389.532 1109.93 389.858C1109.14 390.185 1108.27 390.27 1107.44 390.104C1106.6 389.937 1105.83 389.527 1105.22 388.924C1104.62 388.32 1104.21 387.552 1104.04 386.716C1103.88 385.879 1103.96 385.012 1104.29 384.224C1104.61 383.436 1105.17 382.763 1105.88 382.289C1106.59 381.815 1107.42 381.562 1108.28 381.562C1109.42 381.562 1110.52 382.017 1111.33 382.825C1112.14 383.634 1112.6 384.731 1112.6 385.874Z" fill="white"/>
<path fill-rule="evenodd" clip-rule="evenodd" d="M1101.35 385.874C1101.35 386.727 1101.1 387.561 1100.63 388.27C1100.15 388.979 1099.48 389.532 1098.69 389.858C1097.9 390.185 1097.03 390.27 1096.19 390.104C1095.36 389.937 1094.59 389.527 1093.98 388.924C1093.38 388.32 1092.97 387.552 1092.8 386.716C1092.63 385.879 1092.72 385.012 1093.05 384.224C1093.37 383.436 1093.93 382.763 1094.64 382.289C1095.35 381.815 1096.18 381.562 1097.04 381.562C1098.18 381.562 1099.28 382.017 1100.09 382.825C1100.9 383.634 1101.35 384.731 1101.35 385.874Z" fill="white"/>
<path fill-rule="evenodd" clip-rule="evenodd" d="M1089.83 385.874C1089.83 386.727 1089.57 387.561 1089.1 388.27C1088.62 388.979 1087.95 389.532 1087.16 389.858C1086.37 390.185 1085.5 390.27 1084.66 390.104C1083.83 389.937 1083.06 389.527 1082.45 388.924C1081.85 388.32 1081.44 387.552 1081.27 386.716C1081.1 385.879 1081.19 385.012 1081.52 384.224C1081.84 383.436 1082.4 382.763 1083.11 382.289C1083.82 381.815 1084.65 381.562 1085.51 381.562C1086.65 381.562 1087.75 382.017 1088.56 382.825C1089.37 383.634 1089.83 384.731 1089.83 385.874Z" fill="white"/>
<path d="M1133.22 461.729C1127.35 461.729 1122.87 460.097 1119.78 456.833C1116.73 453.57 1115.2 448.934 1115.2 442.928C1115.2 439.942 1115.67 437.285 1116.6 434.959C1117.54 432.598 1118.83 430.619 1120.46 429.022C1122.09 427.39 1124.03 426.157 1126.29 425.324C1128.55 424.491 1131 424.074 1133.63 424.074C1135.16 424.074 1136.55 424.195 1137.8 424.439C1139.05 424.647 1140.15 424.907 1141.08 425.22C1142.02 425.498 1142.8 425.793 1143.43 426.105C1144.05 426.418 1144.5 426.661 1144.78 426.834L1142.44 433.397C1141.33 432.806 1140.02 432.303 1138.53 431.886C1137.07 431.47 1135.41 431.261 1133.53 431.261C1132.28 431.261 1131.05 431.47 1129.83 431.886C1128.65 432.303 1127.59 432.98 1126.66 433.917C1125.75 434.82 1125.02 436.001 1124.47 437.459C1123.91 438.917 1123.64 440.688 1123.64 442.771C1123.64 444.438 1123.81 446 1124.16 447.459C1124.54 448.882 1125.13 450.115 1125.93 451.157C1126.76 452.198 1127.84 453.031 1129.16 453.656C1130.48 454.247 1132.07 454.542 1133.95 454.542C1135.13 454.542 1136.19 454.472 1137.12 454.334C1138.06 454.195 1138.9 454.038 1139.62 453.865C1140.35 453.656 1141 453.431 1141.55 453.188C1142.11 452.945 1142.61 452.719 1143.06 452.511L1145.3 459.021C1144.16 459.715 1142.54 460.34 1140.46 460.896C1138.37 461.451 1135.96 461.729 1133.22 461.729ZM1161.43 442.198H1170.13V432.563H1177.21V442.198H1185.91V448.709H1177.21V458.344H1170.13V448.709H1161.43V442.198ZM1191.03 442.198H1199.73V432.563H1206.81V442.198H1215.51V448.709H1206.81V458.344H1199.73V448.709H1191.03V442.198Z" fill="#C1C1C1"/>
<path fill-rule="evenodd" clip-rule="evenodd" d="M1144.56 430.028C1144.29 430.329 1144.11 430.702 1144.04 431.104C1143.97 431.505 1144.02 431.916 1144.19 432.289C1144.73 433.799 1146.54 435.483 1148.64 437.165C1148.91 437.38 1149.15 437.58 1149.35 437.76L1149.52 437.903C1149.56 437.943 1149.6 437.979 1149.64 438.016C1151.59 439.816 1150.86 440.229 1154.37 443.883C1158.38 448.044 1161.14 448.12 1161.93 447.742C1162.59 447.419 1161.24 445.212 1159.75 442.73C1159.67 442.608 1159.6 442.487 1159.53 442.366C1159.33 442.04 1159.14 441.7 1158.94 441.369C1157.18 438.383 1157.63 436.979 1158.05 432.537C1158.39 428.923 1163.68 412.355 1163.68 412.355L1156 411.031C1156 411.031 1153.69 424.237 1151.14 426.261C1149.77 427.339 1148.25 427.355 1146.94 428.147C1146.85 428.204 1146.75 428.26 1146.67 428.32C1145.89 428.792 1145.18 429.367 1144.56 430.028Z" fill="white"/>
<path fill-rule="evenodd" clip-rule="evenodd" d="M1144.56 430.03C1144.29 430.33 1144.11 430.704 1144.04 431.105C1143.97 431.506 1144.02 431.918 1144.19 432.291C1144.86 433.8 1146.62 435.476 1148.65 437.142C1148.92 437.363 1149.15 437.562 1149.35 437.751L1149.52 437.894C1149.56 437.934 1149.6 437.969 1149.64 438.007C1151.59 439.807 1150.86 440.219 1154.37 443.874C1158.38 448.035 1161.14 448.11 1161.93 447.733C1162.59 447.41 1161.24 445.202 1159.75 442.72C1156.94 441.624 1154.48 439.811 1152.61 437.462C1150.19 434.387 1148.58 430.436 1146.94 428.148C1146.84 428.205 1146.75 428.262 1146.67 428.321C1145.89 428.794 1145.18 429.368 1144.56 430.03Z" fill="#F83718"/>
<path fill-rule="evenodd" clip-rule="evenodd" d="M1206.5 425.237C1206.97 427.604 1210.35 427.213 1214.13 426.291C1217.91 425.369 1217 426.461 1222.38 425.868C1227.75 425.275 1229.38 423.273 1229.55 422.478C1229.69 421.769 1227.04 421.521 1224.19 421.19C1223.83 421.154 1223.47 421.109 1223.11 421.063C1219.9 420.661 1217.54 418.586 1214.62 416.886C1211.85 415.269 1207.72 408.709 1207.72 408.709L1200.36 409.294C1200.36 409.294 1204.22 415.158 1205.72 417.708C1206.6 419.206 1206.55 421.189 1206.44 422.72C1206.35 423.558 1206.37 424.405 1206.5 425.237Z" fill="white"/>
<path fill-rule="evenodd" clip-rule="evenodd" d="M1214.13 426.299C1217.91 425.377 1217 426.469 1222.38 425.876C1227.75 425.283 1229.38 423.281 1229.54 422.485C1229.69 421.777 1227.04 421.529 1224.19 421.197L1224.16 421.254C1221.86 422.73 1219.2 423.556 1216.47 423.644C1212.82 423.731 1208.96 422.688 1206.44 422.728C1206.35 423.566 1206.37 424.412 1206.5 425.245C1206.97 427.603 1210.35 427.213 1214.13 426.299Z" fill="#F83718"/>
<path fill-rule="evenodd" clip-rule="evenodd" d="M1178.25 378.189L1162.37 420.867C1160.77 420.985 1159.15 420.837 1157.59 420.427C1155.43 419.808 1152.97 418.183 1152.97 418.183C1152.97 418.183 1156.91 377.219 1164.14 368.684C1171.36 360.149 1178.25 378.189 1178.25 378.189Z" fill="#0D0D0D"/>
<path fill-rule="evenodd" clip-rule="evenodd" d="M1115.44 360.924C1115.44 360.924 1161.07 345.517 1171.25 348.797C1181.43 352.077 1211.99 412.781 1211.99 412.781C1211.99 412.781 1211.3 413.695 1209.42 414.398C1207.67 415.053 1203.42 415.013 1203.42 415.013C1203.42 415.013 1175.85 391.407 1172.56 384.524C1169.28 377.641 1167.97 371.085 1164.69 371.739C1161.4 372.394 1122.33 387.804 1113.46 378.622C1104.6 369.441 1106.92 357.521 1106.92 357.521L1115.44 360.924Z" fill="#0D0D0D"/>
</svg>
